<?xml version="1.0" encoding="UTF-8"?>
<svg  width="128px" height="148px" viewBox="0 0 128 148" version="1.1" xmlns="http://www.w3.org/2000/svg" xmlns:xlink="http://www.w3.org/1999/xlink">
    <title>card.device</title>
    <defs>
        <path d="M0.014601098,11.5334302 C0.014601098,10.5450581 0.715453802,9.33866279 1.57691858,8.84447674 L16.2948254,0.370639535 C17.1562902,-0.123546512 18.5579956,-0.123546512 19.4194603,0.370639535 L34.1519682,8.84447674 C35.013433,9.33866279 35.7142857,10.5450581 35.7142857,11.5334302 L35.7142857,28.4665698 C35.7142857,29.4549419 35.013433,30.6613372 34.1519682,31.1555233 L19.4194603,39.6293605 C18.5579956,40.1235465 17.1562902,40.1235465 16.2948254,39.6293605 L1.56231749,31.1555233 C0.700852704,30.6613372 0,29.4549419 0,28.4665698 L0,11.5334302 L0.014601098,11.5334302 Z" id="path-1"></path>
        <path d="M0.0456284313,36.0419695 C0.0456284313,32.9533067 2.23579313,29.1833212 4.92787058,27.6389898 L50.9213293,1.15824855 C53.6134067,-0.386082849 57.9937361,-0.386082849 60.6858136,1.15824855 L106.724901,27.6389898 C109.416978,29.1833212 111.607143,32.9533067 111.607143,36.0419695 L111.607143,88.9580305 C111.607143,92.0466933 109.416978,95.8166788 106.724901,97.3610102 L60.6858136,123.841751 C57.9937361,125.386083 53.6134067,125.386083 50.9213293,123.841751 L4.88224214,97.3610102 C2.1901647,95.8166788 -7.10542736e-15,92.0466933 -7.10542736e-15,88.9580305 L-7.10542736e-15,36.0419695 L0.0456284313,36.0419695 Z" id="path-2"></path>
    </defs>
    <g id="Symbols" stroke="none" stroke-width="1" fill="none" fill-rule="evenodd">
        <g id="card.device">
            <g id="Path">
                <use fill="#B6C6CF" xlink:href="#path-1"></use>
                <use fill-opacity="0.8" fill="#191B5E" xlink:href="#path-1"></use>
            </g>
            <g id="Path" transform="translate(15.839286, 22.500000)">
                <use stroke="#FFFFFF" stroke-width="1" xlink:href="#path-2"></use>
                <use stroke-opacity="0.8" stroke="#191B5E" stroke-width="2" xlink:href="#path-2"></use>
            </g>
        </g>
    </g>
</svg>