<svg
  xmlns="http://www.w3.org/2000/svg"
  width="24"
  height="24"
  viewBox="0 0 24 24"
>
  <g id="Layer_2" data-name="Layer 2">
    <g id="Layer_1-2" data-name="Layer 1">
      <g id="Duo">
        <path
          id="_50"
          data-name="50"
          className="cls-1"
          d="M12,0A12,12,0,1,0,24,12,12,12,0,0,0,12,0Zm0,18.75a1.49,1.49,0,0,1-1.5-1.5,1.46,1.46,0,0,1,1.5-1.5,1.5,1.5,0,0,1,0,3Zm3.24-6.66-2.12,1.32v.09a1.12,1.12,0,0,1-2.24,0v-.75a1.14,1.14,0,0,1,.56-1l2.67-1.6a1,1,0,0,0,.51-.89,1.08,1.08,0,0,0-1.07-1H11.16a1,1,0,0,0-1,1,1.12,1.12,0,1,1-2.24,0A3.25,3.25,0,0,1,11.11,6h2.4a3.26,3.26,0,0,1,1.73,6.09Z"
          fill="rgba(182,198,207,0.4)"
        />
        <path
          id="_100"
          data-name="100"
          d="M12,15.75a1.49,1.49,0,0,0-1.51,1.5A1.46,1.46,0,0,0,12,18.75a1.49,1.49,0,0,0,1.51-1.5A1.52,1.52,0,0,0,12,15.75ZM13.58,6H11.17A3.21,3.21,0,0,0,7.88,9.28,1.17,1.17,0,0,0,9,10.41a1.15,1.15,0,0,0,1.13-1.13,1,1,0,0,1,1-1h2.41a1,1,0,0,1,1.06,1,.89.89,0,0,1-.46.85l-2.69,1.64a1.15,1.15,0,0,0-.56,1v.75a1.13,1.13,0,0,0,2.26,0v-.09l2.12-1.32a3.33,3.33,0,0,0,1.6-2.81A3.21,3.21,0,0,0,13.58,6Z"
          fill="#546E7A"
        />
      </g>
    </g>
  </g>
</svg>