<svg xmlns="http://www.w3.org/2000/svg" xmlns:xlink="http://www.w3.org/1999/xlink" width="100%" height="50" 
viewBox="0 0 684 50">
  <defs>
    <style>
      .cls-1 {
        fill: url(#New_Gradient_Swatch);
      }

      .cls-2 {
        fill: #fff;
      }

      .cls-3, .cls-4 {
        fill: none;
      }

      .cls-4 {
        stroke: #fff;
        stroke-linecap: round;
        stroke-miterlimit: 10;
        stroke-width: 2px;
      }
    </style>
    <linearGradient id="New_Gradient_Swatch" data-name="New Gradient Swatch" x1="2.23" y1="25.06" x2="693.24" y2="25.06" gradientUnits="userSpaceOnUse">
      <stop offset="0" stop-color="#52b588"/>
      <stop offset="0.16" stop-color="#7bc689"/>
      <stop offset="0.31" stop-color="#fde17f"/>
      <stop offset="0.64" stop-color="#fdba28"/>
      <stop offset="0.79" stop-color="#f15d2b"/>
      <stop offset="1" stop-color="#ee3425"/>
    </linearGradient>
  </defs>
  <g id="high">
    <g>
      <path class="cls-1" d="M671.81,46.74a1.05,1.05,0,0,1-1.06-1.06V42.25H467.48a3.41,3.41,0,0,1-3.4-3.4v-6h-1.5a3.4,3.4,0,0,1-3.4,3.4H236.82a3.4,3.4,0,0,1-3.4-3.4h-1.5a3.41,3.41,0,0,1-3.4,3.4H5.63a3.41,3.41,0,0,1-3.4-3.4V17.1a3.41,3.41,0,0,1,3.4-3.4H228.52a3.41,3.41,0,0,1,3.4,3.4v4h1.5v-4a3.41,3.41,0,0,1,3.4-3.41H459.18a3.4,3.4,0,0,1,3.4,3.4v4h1.5v-10a3.41,3.41,0,0,1,3.4-3.4H670.75V4.43a1,1,0,0,1,1.06-1,1,1,0,0,1,.74.32L693,24.7a1.13,1.13,0,0,1,0,1.52L672.54,46.43A1,1,0,0,1,671.81,46.74Z"/>
      <path class="cls-2" d="M671.81,4.13a.28.28,0,0,1,.21.1l20.38,21a.38.38,0,0,1,0,.49L672,45.89a.25.25,0,0,1-.2.1.31.31,0,0,1-.31-.31V41.5h-204a2.65,2.65,0,0,1-2.65-2.65v-10h-3v4a2.65,2.65,0,0,1-2.65,2.65H236.82a2.65,2.65,0,0,1-2.65-2.65v-4h-3v4a2.65,2.65,0,0,1-2.65,2.65H5.63A2.65,2.65,0,0,1,3,32.85V17.1a2.65,2.65,0,0,1,2.65-2.65H228.52a2.66,2.66,0,0,1,2.65,2.66v4h3v-4a2.66,2.66,0,0,1,2.65-2.66H459.18a2.65,2.65,0,0,1,2.65,2.65v4h3v-10a2.65,2.65,0,0,1,2.65-2.65h204V4.43c0-.29.31-.3.31-.3m0-1.5A1.8,1.8,0,0,0,670,4.43V7H467.48a4.15,4.15,0,0,0-4.15,4.15v6A4.15,4.15,0,0,0,459.18,13H236.82a4.15,4.15,0,0,0-4.15,4.16v0A4.15,4.15,0,0,0,228.52,13H5.63A4.15,4.15,0,0,0,1.48,17.1V32.85A4.15,4.15,0,0,0,5.63,37H228.52a4.15,4.15,0,0,0,4.15-4.15v0A4.15,4.15,0,0,0,236.82,37H459.18a4.15,4.15,0,0,0,4.15-4.15v6A4.15,4.15,0,0,0,467.48,43H670v2.68A1.8,1.8,0,0,0,673.07,47l20.41-20.23a1.88,1.88,0,0,0,0-2.55l-20.41-21a1.77,1.77,0,0,0-1.28-.55Z"/>
    </g>
    <g id="units">
      <g id="unit0">
        <rect id="padding" class="cls-3" x="2" width="46.13" height="50"/>
        <line id="unit" class="cls-4" x1="8" y1="21" x2="8" y2="29"/>
      </g>
      <g id="unit1">
        <rect id="padding-2" data-name="padding" class="cls-3" x="48.13" width="46.13" height="50"/>
        <line id="unit-2" data-name="unit" class="cls-4" x1="54.13" y1="21" x2="54.13" y2="29"/>
      </g>
      <g id="unit2">
        <rect id="padding-3" data-name="padding" class="cls-3" x="94.27" width="46.13" height="50"/>
        <line id="unit-3" data-name="unit" class="cls-4" x1="100.27" y1="21" x2="100.27" y2="29"/>
      </g>
      <g id="unit3">
        <rect id="padding-4" data-name="padding" class="cls-3" x="140.4" width="46.13" height="50"/>
        <line id="unit-4" data-name="unit" class="cls-4" x1="146.4" y1="21" x2="146.4" y2="29"/>
      </g>
      <g id="unit4">
        <rect id="padding-5" data-name="padding" class="cls-3" x="186.53" width="46.13" height="50"/>
        <line id="unit-5" data-name="unit" class="cls-4" x1="192.53" y1="21" x2="192.53" y2="29"/>
      </g>
      <g id="unit5">
        <rect id="padding-6" data-name="padding" class="cls-3" x="232.67" width="46.13" height="50"/>
        <line id="unit-6" data-name="unit" class="cls-4" x1="238.67" y1="21" x2="238.67" y2="29"/>
      </g>
      <g id="unit6">
        <rect id="padding-7" data-name="padding" class="cls-3" x="278.8" width="46.13" height="50"/>
        <line id="unit-7" data-name="unit" class="cls-4" x1="284.8" y1="21" x2="284.8" y2="29"/>
      </g>
      <g id="unit7">
        <rect id="padding-8" data-name="padding" class="cls-3" x="324.93" width="46.13" height="50"/>
        <line id="unit-8" data-name="unit" class="cls-4" x1="330.93" y1="21" x2="330.93" y2="29"/>
      </g>
      <g id="unit8">
        <rect id="padding-9" data-name="padding" class="cls-3" x="371.07" width="46.13" height="50"/>
        <line id="unit-9" data-name="unit" class="cls-4" x1="377.07" y1="21" x2="377.07" y2="29"/>
      </g>
      <g id="unit9">
        <rect id="padding-10" data-name="padding" class="cls-3" x="417.2" width="46.13" height="50"/>
        <line id="unit-10" data-name="unit" class="cls-4" x1="423.2" y1="21" x2="423.2" y2="29"/>
      </g>
      <g id="unit10">
        <rect id="padding-11" data-name="padding" class="cls-3" x="463.33" width="46.13" height="50"/>
        <line id="unit-11" data-name="unit" class="cls-4" x1="469.33" y1="21" x2="469.33" y2="29"/>
      </g>
      <g id="unit11">
        <rect id="padding-12" data-name="padding" class="cls-3" x="509.47" width="46.13" height="50"/>
        <line id="unit-12" data-name="unit" class="cls-4" x1="515.47" y1="21" x2="515.47" y2="29"/>
      </g>
      <g id="unit12">
        <rect id="padding-13" data-name="padding" class="cls-3" x="555.6" width="46.13" height="50"/>
        <line id="unit-13" data-name="unit" class="cls-4" x1="561.6" y1="21" x2="561.6" y2="29"/>
      </g>
      <g id="unit13">
        <rect id="padding-14" data-name="padding" class="cls-3" x="601.73" width="46.13" height="50"/>
        <line id="unit-14" data-name="unit" class="cls-4" x1="607.73" y1="21" x2="607.73" y2="29"/>
      </g>
      <g id="unit14">
        <rect id="padding-15" data-name="padding" class="cls-3" x="647.87" width="46.13" height="50"/>
        <line id="unit-15" data-name="unit" class="cls-4" x1="653.87" y1="21" x2="653.87" y2="29"/>
      </g>
    </g>
  </g>
</svg>
