<svg xmlns="http://www.w3.org/2000/svg" xmlns:xlink="http://www.w3.org/1999/xlink" width="100%" height="50" viewBox="0 0 694 50">
  <defs>
    <style>
      .cls-1 {
        fill: url(#New_Gradient_Swatch);
      }

      .cls-2 {
        fill: #fff;
      }
    </style>
    <linearGradient id="New_Gradient_Swatch" data-name="New Gradient Swatch" x1="2.23" y1="25.06" x2="693.24" y2="25.06" gradientUnits="userSpaceOnUse">
      <stop offset="0" stop-color="#52b588"/>
      <stop offset="0.16" stop-color="#7bc689"/>
      <stop offset="0.31" stop-color="#fde17f"/>
      <stop offset="0.64" stop-color="#fdba28"/>
      <stop offset="0.79" stop-color="#f15d2b"/>
      <stop offset="1" stop-color="#ee3425"/>
    </linearGradient>
  </defs>
  <g id="low.noscale">
    <g>
      <path class="cls-1" d="M671.81,46.73a1,1,0,0,1-1.06-1V36.25H467.48a3.4,3.4,0,0,1-3.4-3.4h-1.5a3.4,3.4,0,0,1-3.4,3.4H236.82a3.4,3.4,0,0,1-3.4-3.4h-1.5v6a3.4,3.4,0,0,1-3.4,3.4H5.63a3.4,3.4,0,0,1-3.4-3.4V11.15a3.41,3.41,0,0,1,3.4-3.4H228.52a3.41,3.41,0,0,1,3.4,3.4v10h1.5v-4a3.4,3.4,0,0,1,3.4-3.4H459.18a3.4,3.4,0,0,1,3.4,3.4v4h1.5v-4a3.41,3.41,0,0,1,3.4-3.4H670.75V4.43a1.05,1.05,0,0,1,1.06-1,1,1,0,0,1,.74.32L693,24.7a1.13,1.13,0,0,1,0,1.52L672.54,46.43A1,1,0,0,1,671.81,46.73Z"/>
      <path class="cls-2" d="M671.81,4.13a.28.28,0,0,1,.21.1l20.38,21a.38.38,0,0,1,0,.49L672,45.89a.25.25,0,0,1-.2.1.31.31,0,0,1-.31-.31V35.5h-204a2.65,2.65,0,0,1-2.65-2.65v-4h-3v4a2.65,2.65,0,0,1-2.65,2.65H236.82a2.65,2.65,0,0,1-2.65-2.65v-4h-3v10a2.65,2.65,0,0,1-2.65,2.65H5.63A2.65,2.65,0,0,1,3,38.85V11.15A2.65,2.65,0,0,1,5.63,8.5H228.52a2.65,2.65,0,0,1,2.65,2.65v10h3v-4a2.65,2.65,0,0,1,2.65-2.65H459.18a2.65,2.65,0,0,1,2.65,2.65v4h3v-4a2.65,2.65,0,0,1,2.65-2.65h204v-10c0-.29.31-.3.31-.3m0-1.5A1.8,1.8,0,0,0,670,4.43V13H467.48a4.15,4.15,0,0,0-4.15,4.15v0A4.15,4.15,0,0,0,459.18,13H236.82a4.15,4.15,0,0,0-4.15,4.15v-6A4.15,4.15,0,0,0,228.52,7H5.63a4.15,4.15,0,0,0-4.15,4.15v27.7A4.15,4.15,0,0,0,5.63,43H228.52a4.15,4.15,0,0,0,4.15-4.15v-6A4.15,4.15,0,0,0,236.82,37H459.18a4.15,4.15,0,0,0,4.15-4.15v0A4.15,4.15,0,0,0,467.48,37H670v8.68A1.8,1.8,0,0,0,673.07,47l20.41-20.23a1.88,1.88,0,0,0,0-2.55l-20.41-21a1.77,1.77,0,0,0-1.28-.55Z"/>
    </g>
  </g>
</svg>
