<svg style="width: 100%;  overflow: visible" 
xmlns="http://www.w3.org/2000/svg" 
xmlns:xlink="http://www.w3.org/1999/xlink" 
width="697" 
height="54" 
viewBox="0 0 730 54" 
preserveAspectRatio="none">
  <defs>
    <style>
      .cls-1, .cls-2 {
        fill: none;
      }

      .cls-2 {
        clip-rule: evenodd;
      }

      .cls-3 {
        fill-rule: evenodd;
        fill: url(#linear-gradient);
      }

      .cls-4 {
        clip-path: url(#clip-path);
      }

      .cls-5, .cls-7 {
        fill: #fff;
      }

      .cls-5 {
        opacity: 0;
      }

      .cls-6 {
        clip-path: url(#clip-path-2);
      }

      .cls-8 {
        clip-path: url(#clip-path-3);
      }

      .cls-9 {
        clip-path: url(#clip-path-4);
      }

      .cls-10 {
        clip-path: url(#clip-path-5);
      }

      .cls-11 {
        clip-path: url(#clip-path-6);
      }

      .cls-12 {
        clip-path: url(#clip-path-7);
      }

      .cls-13 {
        clip-path: url(#clip-path-8);
      }

      .cls-14 {
        clip-path: url(#clip-path-9);
      }

      .cls-15 {
        clip-path: url(#clip-path-10);
      }

      .cls-16 {
        clip-path: url(#clip-path-11);
      }

      .cls-17 {
        clip-path: url(#clip-path-12);
      }

      .cls-18 {
        clip-path: url(#clip-path-13);
      }

      .cls-19 {
        clip-path: url(#clip-path-14);
      }

      .cls-20 {
        clip-path: url(#clip-path-15);
      }

      .cls-21 {
        clip-path: url(#clip-path-16);
      }

      .cls-22 {
        clip-path: url(#clip-path-17);
      }

      .cls-23 {
        clip-path: url(#clip-path-18);
      }

      .cls-24 {
        clip-path: url(#clip-path-19);
      }

      .cls-25 {
        clip-path: url(#clip-path-20);
      }

      .cls-26 {
        clip-path: url(#clip-path-21);
      }

      .cls-27 {
        clip-path: url(#clip-path-22);
      }

      .cls-28 {
        clip-path: url(#clip-path-23);
      }

      .cls-29 {
        clip-path: url(#clip-path-24);
      }

      .cls-30 {
        clip-path: url(#clip-path-25);
      }

      .cls-31 {
        clip-path: url(#clip-path-26);
      }

      .cls-32 {
        clip-path: url(#clip-path-27);
      }

      .cls-33 {
        clip-path: url(#clip-path-28);
      }

      .cls-34 {
        clip-path: url(#clip-path-29);
      }

      .cls-35 {
        clip-path: url(#clip-path-30);
      }
    </style>
    <linearGradient id="linear-gradient" x1="54.09" y1="27" x2="728.08" y2="27" gradientUnits="userSpaceOnUse">
      <stop offset="0" stop-color="#57b588"/>
      <stop offset="0.16" stop-color="#78ca89"/>
      <stop offset="0.31" stop-color="#ffe17d"/>
      <stop offset="0.64" stop-color="#ffbb2c"/>
      <stop offset="0.79" stop-color="#ff5c1f"/>
      <stop offset="1" stop-color="#ef2f10"/>
    </linearGradient>
    <clipPath id="clip-path">
      <rect class="cls-1" x="679.77" y="15" width="48.47" height="24"/>
    </clipPath>
    <clipPath id="clip-path-2">
      <path class="cls-2" d="M685.25,23a1,1,0,0,1,1,1v6a1,1,0,0,1-2,0V24A1,1,0,0,1,685.25,23Z"/>
    </clipPath>
    <clipPath id="clip-path-3">
      <rect class="cls-1" x="630.77" y="15" width="48.47" height="24"/>
    </clipPath>
    <clipPath id="clip-path-4">
      <path class="cls-2" d="M636.25,23a1,1,0,0,1,1,1v6a1,1,0,0,1-2,0V24A1,1,0,0,1,636.25,23Z"/>
    </clipPath>
    <clipPath id="clip-path-5">
      <rect class="cls-1" x="582.77" y="15" width="48.47" height="24"/>
    </clipPath>
    <clipPath id="clip-path-6">
      <path class="cls-2" d="M588.25,23a1,1,0,0,1,1,1v6a1,1,0,0,1-2,0V24A1,1,0,0,1,588.25,23Z"/>
    </clipPath>
    <clipPath id="clip-path-7">
      <rect class="cls-1" x="533.77" y="15" width="48.47" height="24"/>
    </clipPath>
    <clipPath id="clip-path-8">
      <path class="cls-2" d="M539.25,23a1,1,0,0,1,1,1v6a1,1,0,0,1-2,0V24A1,1,0,0,1,539.25,23Z"/>
    </clipPath>
    <clipPath id="clip-path-9">
      <rect class="cls-1" x="485.77" y="15" width="48.47" height="24"/>
    </clipPath>
    <clipPath id="clip-path-10">
      <path class="cls-2" d="M491.25,23a1,1,0,0,1,1,1v6a1,1,0,0,1-2,0V24A1,1,0,0,1,491.25,23Z"/>
    </clipPath>
    <clipPath id="clip-path-11">
      <rect class="cls-1" x="436.77" y="15" width="48.47" height="24"/>
    </clipPath>
    <clipPath id="clip-path-12">
      <path class="cls-2" d="M442.25,23a1,1,0,0,1,1,1v6a1,1,0,0,1-2,0V24A1,1,0,0,1,442.25,23Z"/>
    </clipPath>
    <clipPath id="clip-path-13">
      <rect class="cls-1" x="388.77" y="15" width="48.47" height="24"/>
    </clipPath>
    <clipPath id="clip-path-14">
      <path class="cls-2" d="M394.25,23a1,1,0,0,1,1,1v6a1,1,0,0,1-2,0V24A1,1,0,0,1,394.25,23Z"/>
    </clipPath>
    <clipPath id="clip-path-15">
      <rect class="cls-1" x="339.77" y="15" width="48.47" height="24"/>
    </clipPath>
    <clipPath id="clip-path-16">
      <path class="cls-2" d="M345.25,23a1,1,0,0,1,1,1v6a1,1,0,0,1-2,0V24A1,1,0,0,1,345.25,23Z"/>
    </clipPath>
    <clipPath id="clip-path-17">
      <rect class="cls-1" x="291.77" y="15" width="48.47" height="24"/>
    </clipPath>
    <clipPath id="clip-path-18">
      <path class="cls-2" d="M297.25,23a1,1,0,0,1,1,1v6a1,1,0,0,1-2,0V24A1,1,0,0,1,297.25,23Z"/>
    </clipPath>
    <clipPath id="clip-path-19">
      <rect class="cls-1" x="242.77" y="15" width="48.47" height="24"/>
    </clipPath>
    <clipPath id="clip-path-20">
      <path class="cls-2" d="M248.25,23a1,1,0,0,1,1,1v6a1,1,0,0,1-2,0V24A1,1,0,0,1,248.25,23Z"/>
    </clipPath>
    <clipPath id="clip-path-21">
      <rect class="cls-1" x="194.77" y="15" width="48.47" height="24"/>
    </clipPath>
    <clipPath id="clip-path-22">
      <path class="cls-2" d="M200.25,23a1,1,0,0,1,1,1v6a1,1,0,0,1-2,0V24A1,1,0,0,1,200.25,23Z"/>
    </clipPath>
    <clipPath id="clip-path-23">
      <rect class="cls-1" x="145.77" y="15" width="48.47" height="24"/>
    </clipPath>
    <clipPath id="clip-path-24">
      <path class="cls-2" d="M151.25,23a1,1,0,0,1,1,1v6a1,1,0,0,1-2,0V24A1,1,0,0,1,151.25,23Z"/>
    </clipPath>
    <clipPath id="clip-path-25">
      <rect class="cls-1" x="97.77" y="15" width="48.47" height="24"/>
    </clipPath>
    <clipPath id="clip-path-26">
      <path class="cls-2" d="M103.25,23a1,1,0,0,1,1,1v6a1,1,0,0,1-2,0V24A1,1,0,0,1,103.25,23Z"/>
    </clipPath>
    <clipPath id="clip-path-27">
      <rect class="cls-1" x="48.77" y="15" width="48.47" height="24"/>
    </clipPath>
    <clipPath id="clip-path-28">
      <path class="cls-2" d="M54.25,23a1,1,0,0,1,1,1v6a1,1,0,0,1-2,0V24A1,1,0,0,1,54.25,23Z"/>
    </clipPath>
    <clipPath id="clip-path-29">
      <rect class="cls-1" x="0.77" y="15" width="48.47" height="24"/>
    </clipPath>
    <clipPath id="clip-path-30">
      <path class="cls-2" d="M6.25,23a1,1,0,0,1,1,1v6a1,1,0,0,1-2,0V24A1,1,0,0,1,6.25,23Z"/>
    </clipPath>
  </defs>
  <g id="low">
    <path id="low.expanded" class="cls-3" d="M727.59,26.14,706.6,2a1,1,0,0,0-.75-.34,1,1,0,0,0-1,1V15h-.1v1.5H490.88a4.49,4.49,0,0,0-1.29.19,6.09,6.09,0,0,0-1.34,2V21h-3V17.63c0-.29-1.08-1.17-3.06-1.17H247.31a5.46,5.46,0,0,0-1.82.29,6.1,6.1,0,0,0-1.24,1.87V21h-3V13a2.8,2.8,0,0,0-3-2.5H6.25a2.94,2.94,0,0,0-.51,0,6,6,0,0,0-2,4.45V39a6,6,0,0,0,2,4.46,4.38,4.38,0,0,0,.51,0h232a2.79,2.79,0,0,0,3-2.5V33h3v2.35a6.23,6.23,0,0,0,1.24,1.87,5.75,5.75,0,0,0,1.82.28H482.19c2,0,3.06-.87,3.06-1.16V33h3v2.35a6.09,6.09,0,0,0,1.34,2,4.51,4.51,0,0,0,1.29.18H704.75V39h.1v12.4a1,1,0,0,0,1.74.67l21-23.24A2,2,0,0,0,727.59,26.14Z"/>
    <g class="cls-4">
      <rect class="cls-5" x="678.77" y="22" width="9" height="10"/>
    </g>
    <g class="cls-6">
      <rect class="cls-7" x="683.25" y="22" width="4" height="10"/>
    </g>
    <g class="cls-8">
      <rect class="cls-5" x="629.77" y="22" width="50.47" height="10"/>
    </g>
    <g class="cls-9">
      <rect class="cls-7" x="634.25" y="22" width="4" height="10"/>
    </g>
    <g class="cls-10">
      <rect class="cls-5" x="581.77" y="22" width="50.47" height="10"/>
    </g>
    <g class="cls-11">
      <rect class="cls-7" x="586.25" y="22" width="4" height="10"/>
    </g>
    <g class="cls-12">
      <rect class="cls-5" x="532.77" y="22" width="50.47" height="10"/>
    </g>
    <g class="cls-13">
      <rect class="cls-7" x="537.25" y="22" width="4" height="10"/>
    </g>
    <g class="cls-14">
      <rect class="cls-5" x="484.77" y="22" width="50.47" height="10"/>
    </g>
    <g class="cls-15">
      <rect class="cls-7" x="489.25" y="22" width="4" height="10"/>
    </g>
    <g class="cls-16">
      <rect class="cls-5" x="435.77" y="22" width="50.47" height="10"/>
    </g>
    <g class="cls-17">
      <rect class="cls-7" x="440.25" y="22" width="4" height="10"/>
    </g>
    <g class="cls-18">
      <rect class="cls-5" x="387.77" y="22" width="50.47" height="10"/>
    </g>
    <g class="cls-19">
      <rect class="cls-7" x="392.25" y="22" width="4" height="10"/>
    </g>
    <g class="cls-20">
      <rect class="cls-5" x="338.77" y="22" width="50.47" height="10"/>
    </g>
    <g class="cls-21">
      <rect class="cls-7" x="343.25" y="22" width="4" height="10"/>
    </g>
    <g class="cls-22">
      <rect class="cls-5" x="290.77" y="22" width="50.47" height="10"/>
    </g>
    <g class="cls-23">
      <rect class="cls-7" x="295.25" y="22" width="4" height="10"/>
    </g>
    <g class="cls-24">
      <rect class="cls-5" x="241.77" y="22" width="50.47" height="10"/>
    </g>
    <g class="cls-25">
      <rect class="cls-7" x="246.25" y="22" width="4" height="10"/>
    </g>
    <g class="cls-26">
      <rect class="cls-5" x="193.77" y="22" width="50.47" height="10"/>
    </g>
    <g class="cls-27">
      <rect class="cls-7" x="198.25" y="22" width="4" height="10"/>
    </g>
    <g class="cls-28">
      <rect class="cls-5" x="144.77" y="22" width="50.47" height="10"/>
    </g>
    <g class="cls-29">
      <rect class="cls-7" x="149.25" y="22" width="4" height="10"/>
    </g>
    <g class="cls-30">
      <rect class="cls-5" x="96.77" y="22" width="50.47" height="10"/>
    </g>
    <g class="cls-31">
      <rect class="cls-7" x="101.25" y="22" width="4" height="10"/>
    </g>
    <g class="cls-32">
      <rect class="cls-5" x="47.77" y="22" width="50.47" height="10"/>
    </g>
    <g class="cls-33">
      <rect class="cls-7" x="52.25" y="22" width="4" height="10"/>
    </g>
    <g class="cls-34">
      <rect class="cls-5" x="3.77" y="22" width="46.47" height="10"/>
    </g>
    <g class="cls-35">
      <rect class="cls-7" x="4.25" y="22" width="4" height="10"/>
    </g>
  </g>
</svg>
