<?xml version="1.0" encoding="UTF-8"?>
<svg width="126px" height="113px" viewBox="0 0 126 113" version="1.1" xmlns="http://www.w3.org/2000/svg" xmlns:xlink="http://www.w3.org/1999/xlink">
    <title>asset/banner.right</title>
    <defs>
        <rect id="path-1" x="0" y="0" width="126" height="113"></rect>
        <path d="M0.0429272281,33.7352834 C0.0429272281,30.8442951 2.10343418,27.3155887 4.63614064,25.8700945 L47.9067866,1.08412064 C50.439493,-0.361373547 54.560507,-0.361373547 57.0932134,1.08412064 L100.406787,25.8700945 C102.939493,27.3155887 105,30.8442951 105,33.7352834 L105,83.2647166 C105,86.1557049 102.939493,89.6844113 100.406787,91.1299055 L57.0932134,115.915879 C54.560507,117.361374 50.439493,117.361374 47.9067866,115.915879 L4.59321341,91.1299055 C2.06050695,89.6844113 0,86.1557049 0,83.2647166 L0,33.7352834 L0.0429272281,33.7352834 Z" id="path-3"></path>
    </defs>
    <g id="asset/banner.right" stroke="none" stroke-width="1" fill="none" fill-rule="evenodd">
        <mask id="mask-2" fill="white">
            <use xlink:href="#path-1" transform="translate(63.000000, 56.500000) scale(-1, 1) translate(-63.000000, -56.500000) "></use>
        </mask>
        <g id="Rectangle" transform="translate(63.000000, 56.500000) scale(-1, 1) translate(-63.000000, -56.500000) "></g>
        <g id="device-shape-copy-5" mask="url(#mask-2)">
            <g transform="translate(72.500000, 52.500000) scale(-1, 1) translate(-72.500000, -52.500000) translate(20.000000, -6.000000)" id="Path">
                <use stroke="#FFFFFF" stroke-width="1" xlink:href="#path-3"></use>
                <use stroke-opacity="0.8" stroke="#191B5E" stroke-width="2" xlink:href="#path-3"></use>
            </g>
        </g>
        <g id="device-shape-copy-4" mask="url(#mask-2)" fill="#99D4C7">
            <g transform="translate(20.000000, 34.500000) scale(-1, 1) translate(-20.000000, -34.500000) translate(0.000000, 12.000000)" id="Path">
                <path d="M0.0163532298,12.975109 C0.0163532298,11.8631904 0.801308258,10.5059956 1.76614881,9.95003634 L18.2502044,0.416969477 C19.215045,-0.138989826 20.784955,-0.138989826 21.7497956,0.416969477 L38.2502044,9.95003634 C39.215045,10.5059956 40,11.8631904 40,12.975109 L40,32.024891 C40,33.1368096 39.215045,34.4940044 38.2502044,35.0499637 L21.7497956,44.5830305 C20.784955,45.1389898 19.215045,45.1389898 18.2502044,44.5830305 L1.74979558,35.0499637 C0.784955029,34.4940044 0,33.1368096 0,32.024891 L0,12.975109 L0.0163532298,12.975109 Z"></path>
            </g>
        </g>
    </g>
</svg>