<?xml version="1.0" encoding="UTF-8"?>
<svg width="233px" height="240px" viewBox="0 0 233 240" version="1.1" xmlns="http://www.w3.org/2000/svg" xmlns:xlink="http://www.w3.org/1999/xlink">
    <title>asset/banner.left</title>
    <defs>
        <rect id="path-1" x="0" y="0" width="233" height="240"></rect>
        <path d="M0.0572363042,44.9803779 C0.0572363042,41.1257267 2.8045789,36.4207849 6.18152085,34.4934593 L63.8757155,1.44549419 C67.2526574,-0.481831395 72.7473426,-0.481831395 76.1242845,1.44549419 L133.875715,34.4934593 C137.252657,36.4207849 140,41.1257267 140,44.9803779 L140,111.019622 C140,114.874273 137.252657,119.579215 133.875715,121.506541 L76.1242845,154.554506 C72.7473426,156.481831 67.2526574,156.481831 63.8757155,154.554506 L6.12428455,121.506541 C2.7473426,119.579215 0,114.874273 0,111.019622 L0,44.9803779 L0.0572363042,44.9803779 Z" id="path-3"></path>
        <path d="M0.0572363042,44.9803779 C0.0572363042,41.1257267 2.8045789,36.4207849 6.18152085,34.4934593 L63.8757155,1.44549419 C67.2526574,-0.481831395 72.7473426,-0.481831395 76.1242845,1.44549419 L133.875715,34.4934593 C137.252657,36.4207849 140,41.1257267 140,44.9803779 L140,111.019622 C140,114.874273 137.252657,119.579215 133.875715,121.506541 L76.1242845,154.554506 C72.7473426,156.481831 67.2526574,156.481831 63.8757155,154.554506 L6.12428455,121.506541 C2.7473426,119.579215 0,114.874273 0,111.019622 L0,44.9803779 L0.0572363042,44.9803779 Z" id="path-4"></path>
        <path d="M0.0658217498,51.900436 C0.0658217498,47.4527616 3.22526574,42.0239826 7.10874898,39.8001453 L73.4570728,1.66787791 C77.340556,-0.555959302 83.659444,-0.555959302 87.5429272,1.66787791 L153.957073,39.8001453 C157.840556,42.0239826 161,47.4527616 161,51.900436 L161,128.099564 C161,132.547238 157.840556,137.976017 153.957073,140.199855 L87.5429272,178.332122 C83.659444,180.555959 77.340556,180.555959 73.4570728,178.332122 L7.04292723,140.199855 C3.15944399,137.976017 0,132.547238 0,128.099564 L0,51.900436 L0.0658217498,51.900436 Z" id="path-5"></path>
    </defs>
    <g id="Symbols" stroke="none" stroke-width="1" fill="none" fill-rule="evenodd">
        <g id="asset/banner.left">
            <mask id="mask-2" fill="white">
                <use xlink:href="#path-1" transform="translate(116.500000, 120.000000) scale(-1, 1) translate(-116.500000, -120.000000) "></use>
            </mask>
            <g id="Rectangle" transform="translate(116.500000, 120.000000) scale(-1, 1) translate(-116.500000, -120.000000) "></g>
            <g id="device-shape-copy" mask="url(#mask-2)">
                <g transform="translate(161.000000, -20.000000) scale(-1, 1) translate(-161.000000, 20.000000) translate(91.000000, -98.000000)" id="Path">
                    <use stroke="#FFFFFF" stroke-width="1" xlink:href="#path-3"></use>
                    <use stroke-opacity="0.8" stroke="#191B5E" stroke-width="2" xlink:href="#path-3"></use>
                </g>
            </g>
            <g id="device-shape-copy-6" mask="url(#mask-2)">
                <g transform="translate(70.000000, 268.000000) scale(-1, 1) translate(-70.000000, -268.000000) translate(0.000000, 190.000000)" id="Path">
                    <use stroke="#FFFFFF" stroke-width="1" xlink:href="#path-4"></use>
                    <use stroke-opacity="0.8" stroke="#191B5E" stroke-width="2" xlink:href="#path-4"></use>
                </g>
            </g>
            <g id="device-shape-copy-2" mask="url(#mask-2)">
                <g transform="translate(80.500000, 0.000000) scale(-1, 1) translate(-80.500000, -0.000000) translate(0.000000, -90.000000)" id="Path">
                    <use fill="#FFFFFF" xlink:href="#path-5"></use>
                    <use fill-opacity="0.8" fill="#191B5E" xlink:href="#path-5"></use>
                </g>
            </g>
            <g id="device-shape-copy-3" mask="url(#mask-2)" fill="#F58787">
                <g transform="translate(20.000000, 100.500000) scale(-1, 1) translate(-20.000000, -100.500000) translate(0.000000, 78.000000)" id="Path">
                    <path d="M0.0163532298,12.975109 C0.0163532298,11.8631904 0.801308258,10.5059956 1.76614881,9.95003634 L18.2502044,0.416969477 C19.215045,-0.138989826 20.784955,-0.138989826 21.7497956,0.416969477 L38.2502044,9.95003634 C39.215045,10.5059956 40,11.8631904 40,12.975109 L40,32.024891 C40,33.1368096 39.215045,34.4940044 38.2502044,35.0499637 L21.7497956,44.5830305 C20.784955,45.1389898 19.215045,45.1389898 18.2502044,44.5830305 L1.74979558,35.0499637 C0.784955029,34.4940044 0,33.1368096 0,32.024891 L0,12.975109 L0.0163532298,12.975109 Z"></path>
                </g>
            </g>
        </g>
    </g>
</svg>