<svg xmlns="http://www.w3.org/2000/svg" width="616.18" height="362.46" viewBox="0 0 616.18 362.46">
  <defs>
    <style>
      .cls-1, .cls-13, .cls-14 {
        fill: none;
      }

      .cls-1 {
        stroke: #3b3a71;
        stroke-miterlimit: 10;
      }

      .cls-2 {
        fill: #8784a9;
      }

      .cls-3 {
        fill: #bee3d8;
      }

      .cls-4 {
        fill: #b9b7ce;
      }

      .cls-5 {
        fill: #c3d0d8;
      }

      .cls-6 {
        fill: #3b3a71;
      }

      .cls-7 {
        fill: #f69a97;
      }

      .cls-8 {
        fill: #f1606a;
      }

      .cls-9 {
        fill: #ee2452;
      }

      .cls-10 {
        fill: #7dcbb8;
      }

      .cls-11 {
        fill: #191b5c;
      }

      .cls-12 {
        fill: #c9d5dc;
      }

      .cls-13 {
        stroke: #191b5c;
      }

      .cls-13, .cls-14 {
        stroke-linecap: round;
        stroke-linejoin: round;
        stroke-width: 1.79px;
      }

      .cls-14 {
        stroke: #c9d5dc;
      }
    </style>
  </defs>
  <g id="Layer_2" data-name="Layer 2">
    <g id="Layer_1-2" data-name="Layer 1">
      <g>
        <path class="cls-1" d="M.5,79A13.48,13.48,0,0,1,6.64,68.42L64.56,35.16a13.62,13.62,0,0,1,12.28,0l57.92,33.26A13.48,13.48,0,0,1,140.9,79v66.52a13.45,13.45,0,0,1-6.14,10.57L76.84,189.34a13.62,13.62,0,0,1-12.28,0L6.64,156.08A13.45,13.45,0,0,1,.5,145.51V79Zm354.57,91.54c0-5.62,4-12.45,8.86-15.26l83.64-48c4.89-2.81,12.83-2.81,17.72,0l83.64,48c4.89,2.81,8.86,9.64,8.86,15.26v96c0,5.62-4,12.45-8.86,15.26l-83.64,48c-4.89,2.81-12.83,2.81-17.72,0l-83.64-48c-4.89-2.81-8.86-9.64-8.86-15.26v-96ZM228.69,45.79a13.48,13.48,0,0,1,6.14-10.57L292.76,2A13.6,13.6,0,0,1,305,2L363,35.22a13.48,13.48,0,0,1,6.14,10.57v66.52A13.47,13.47,0,0,1,363,122.88L305,156.14a13.6,13.6,0,0,1-12.27,0l-57.93-33.26a13.47,13.47,0,0,1-6.14-10.57V45.79ZM140,248a13.49,13.49,0,0,1,6.13-10.57l57.93-33.26a13.6,13.6,0,0,1,12.27,0l57.93,33.26A13.47,13.47,0,0,1,280.43,248v66.52a13.48,13.48,0,0,1-6.14,10.57l-57.93,33.26a13.6,13.6,0,0,1-12.27,0l-57.93-33.26A13.5,13.5,0,0,1,140,314.49V248ZM486.59,117.69a11.36,11.36,0,0,1,5.15-8.9l48.67-28a11.42,11.42,0,0,1,10.31,0l48.67,28a11.35,11.35,0,0,1,5.16,8.9v56a11.35,11.35,0,0,1-5.16,8.9l-48.67,28a11.42,11.42,0,0,1-10.31,0l-48.67-28a11.36,11.36,0,0,1-5.15-8.9v-56Z"/>
        <path class="cls-2" d="M46.86,119.11A13.5,13.5,0,0,1,53,108.54l57.93-33.26a13.6,13.6,0,0,1,12.27,0l57.93,33.26a13.48,13.48,0,0,1,6.14,10.57v66.52a13.47,13.47,0,0,1-6.14,10.57l-57.93,33.26a13.6,13.6,0,0,1-12.27,0L53,196.2a13.49,13.49,0,0,1-6.13-10.57V119.11Z"/>
        <path class="cls-3" d="M109.07,279.79a8.27,8.27,0,0,1,3.77-6.48l35.54-20.41a8.33,8.33,0,0,1,7.53,0l35.55,20.41a8.27,8.27,0,0,1,3.77,6.48v40.82a8.27,8.27,0,0,1-3.77,6.49l-35.55,20.41a8.33,8.33,0,0,1-7.53,0L112.84,327.1a8.27,8.27,0,0,1-3.77-6.49V279.79Z"/>
        <path class="cls-4" d="M276.38,148.05a8.26,8.26,0,0,1,3.76-6.49l35.55-20.41a8.33,8.33,0,0,1,7.53,0l35.54,20.41a8.27,8.27,0,0,1,3.77,6.49v40.82a8.27,8.27,0,0,1-3.77,6.48l-35.54,20.41a8.33,8.33,0,0,1-7.53,0l-35.55-20.41a8.26,8.26,0,0,1-3.76-6.48V148.05Z"/>
        <path class="cls-5" d="M327.87,47.39a8.29,8.29,0,0,1,3.77-6.49l35.54-20.41a8.41,8.41,0,0,1,7.54,0L410.26,40.9A8.29,8.29,0,0,1,414,47.39V88.21a8.29,8.29,0,0,1-3.77,6.49l-35.54,20.41a8.41,8.41,0,0,1-7.54,0L331.64,94.7a8.29,8.29,0,0,1-3.77-6.49V47.39Z"/>
        <path class="cls-6" d="M10,244.14a5.64,5.64,0,0,1,2.56-4.42l24.07-13.89a5.59,5.59,0,0,1,5.1,0l24.07,13.89a5.64,5.64,0,0,1,2.56,4.42v27.79a5.64,5.64,0,0,1-2.56,4.41l-24.07,13.9a5.66,5.66,0,0,1-5.1,0l-24.07-13.9A5.64,5.64,0,0,1,10,271.93V244.14Z"/>
        <path class="cls-7" d="M532.43,139.3a5.63,5.63,0,0,1,2.55-4.42L559.05,121a5.66,5.66,0,0,1,5.1,0l24.07,13.9a5.64,5.64,0,0,1,2.56,4.42v27.79a5.64,5.64,0,0,1-2.56,4.41l-24.07,13.9a5.66,5.66,0,0,1-5.1,0L535,171.5a5.62,5.62,0,0,1-2.55-4.41V139.3Z"/>
        <path class="cls-8" d="M57.9,324.08a1.69,1.69,0,0,1,.77-1.33l7.26-4.19a1.67,1.67,0,0,1,1.54,0l7.26,4.19a1.69,1.69,0,0,1,.77,1.33v8.39a1.69,1.69,0,0,1-.77,1.33L67.47,338a1.67,1.67,0,0,1-1.54,0l-7.26-4.19a1.69,1.69,0,0,1-.77-1.33v-8.39Z"/>
        <path class="cls-6" d="M153.45,48.32a1.72,1.72,0,0,1,.77-1.33l7.26-4.19a1.74,1.74,0,0,1,1.54,0L170.29,47a1.72,1.72,0,0,1,.77,1.33v8.39a1.7,1.7,0,0,1-.77,1.33L163,62.23a1.67,1.67,0,0,1-1.54,0L154.22,58a1.7,1.7,0,0,1-.77-1.33V48.32Z"/>
        <path class="cls-2" d="M579.29,218.31a3.55,3.55,0,0,1,1.61-2.79l15.22-8.79a3.6,3.6,0,0,1,3.23,0l15.22,8.79a3.55,3.55,0,0,1,1.61,2.79v17.57a3.55,3.55,0,0,1-1.61,2.79l-15.22,8.79a3.6,3.6,0,0,1-3.23,0l-15.22-8.79a3.55,3.55,0,0,1-1.61-2.79V218.31Z"/>
        <path class="cls-9" d="M515.6,285.57a2.31,2.31,0,0,1,1-1.8l9.84-5.69a2.33,2.33,0,0,1,2.09,0l9.84,5.69a2.31,2.31,0,0,1,1,1.8V297a2.31,2.31,0,0,1-1,1.8l-9.84,5.69a2.33,2.33,0,0,1-2.09,0l-9.84-5.69a2.31,2.31,0,0,1-1-1.8V285.57Z"/>
        <path class="cls-10" d="M463.49,69.12a2.28,2.28,0,0,1,1-1.8l9.84-5.69a2.31,2.31,0,0,1,2.08,0l9.84,5.69a2.29,2.29,0,0,1,1,1.8V80.5a2.29,2.29,0,0,1-1,1.8L476.45,88a2.31,2.31,0,0,1-2.08,0l-9.84-5.69a2.28,2.28,0,0,1-1-1.8V69.12Z"/>
        <path class="cls-11" d="M105.6,125.12a12.45,12.45,0,0,0-17.58-1,36.05,36.05,0,0,0-12.43,25.77,35.57,35.57,0,0,0,1.67,11.68,12.45,12.45,0,0,0,24-6.75c-.16-.38-3-6.43,3.37-12.12a12.44,12.44,0,0,0,1-17.57ZM115,155.66a7.24,7.24,0,0,0-4-6.49l-4.65-2.32a5.82,5.82,0,0,0-1.5,5.37l.24.84,3.13,1.57a1.06,1.06,0,0,1,.58.93v29.59a2.07,2.07,0,0,0,2.07,2.08h2.07a2,2,0,0,0,2.07-2V155.66Zm8.17-6.49a7.25,7.25,0,0,0-4,6.5l0,29.6a2,2,0,0,0,2.07,1.95h2.08a2.06,2.06,0,0,0,2.07-2.07l0-29.6a1,1,0,0,1,.59-.92l3.09-1.56.28-.95a5.8,5.8,0,0,0-1.51-5.38l-4.65,2.43Zm23-25.07a12.46,12.46,0,0,0-16.57,18.61c6.42,5.72,3.45,11.81,3.35,12.14a12.44,12.44,0,1,0,23.92,6.88A34.53,34.53,0,0,0,158.53,150a35.9,35.9,0,0,0-12.44-25.9Z"/>
        <path class="cls-10" d="M380.81,169.67A13.48,13.48,0,0,1,387,159.1l57.92-33.26a13.62,13.62,0,0,1,12.28,0l57.92,33.26a13.48,13.48,0,0,1,6.14,10.57v66.52a13.47,13.47,0,0,1-6.14,10.57L457.15,280a13.62,13.62,0,0,1-12.28,0L387,246.76a13.47,13.47,0,0,1-6.14-10.57V169.67Z"/>
        <path class="cls-11" d="M451,149A37.06,37.06,0,0,0,414,186.1c0,14.94,5.2,19.11,33.26,59.78a4.64,4.64,0,0,0,7.61,0c28-40.67,33.25-44.84,33.25-59.78A37.06,37.06,0,0,0,451,149Z"/>
        <path class="cls-10" d="M464.85,202.54a.86.86,0,0,1,.47.14l1.57,1a.24.24,0,0,0,.26,0l.22-.17a0,0,0,0,0,0,0l1.38-1.38a1,1,0,0,1,.51-.25l1.55-.2a.23.23,0,0,0,.18-.17l.46-1.78,0-.09,1.86-4.9.06-.12,1.62-2.9a.14.14,0,0,0,0-.06l.68-3a.19.19,0,0,1,0-.1l.48-1.33a.2.2,0,0,0,0-.15l-.64-1.93-.46-1.63a.36.36,0,0,0,0-.09l-2.32-2.76a.89.89,0,0,1-.2-.56v-.47a.21.21,0,0,0-.08-.16l-.36-.33a.2.2,0,0,0-.15-.06h-.09a.86.86,0,0,1-.77-.46l-1.05-2a.19.19,0,0,0-.06-.07l-2.77-2.19a.82.82,0,0,1-.3-.47l-.49-2,0-.08-.55-.71a1,1,0,0,1-.17-.38l-.27-1.49a.25.25,0,0,0-.12-.16l-1-.53a.87.87,0,0,1-.44-.58l-.42-1.8,0,0-.95-2.08a.24.24,0,0,0-.2-.13.23.23,0,0,0-.23.23v1.43c0,.05,0,.1,0,.14l-.43,2.54-.89,3.27a.67.67,0,0,1-.07.18l-.34.65a.89.89,0,0,1-.78.47.91.91,0,0,1-.4-.1l-1.27-.66L455.5,171a1,1,0,0,1-.22-.14l-1.51-1.4a.9.9,0,0,1-.17-1.07l1.3-2.33a.21.21,0,0,0,0-.23l-.18-.24a.21.21,0,0,0-.19-.09l-2,.17a.89.89,0,0,1-.4-.06l-2.22-.88-.08,0h0l-2.72.17a.23.23,0,0,0-.21.22v.8a.84.84,0,0,1,0,.27l-.58,1.79a.85.85,0,0,1-.13.25l-.56.77a.9.9,0,0,1-.65.36l-.58,0a.88.88,0,0,1-.83-.48l-.21-.43a.26.26,0,0,0-.15-.12l-1.15-.29a.21.21,0,0,0-.2,0l-1.6,1.42-.05.06-.29.6a.86.86,0,0,1-.36.37l-2.37,1.3a.23.23,0,0,0-.11.2v1.32a.9.9,0,0,1-.16.5l-.91,1.31a.92.92,0,0,1-.46.34l-2.66.84h0l-2.05.92a.84.84,0,0,1-.32.08l-1.3.06a.17.17,0,0,0-.1,0L426.3,179a.21.21,0,0,0-.11.15l-.43,2.57a.14.14,0,0,0,0,.09l.42,1.68a.84.84,0,0,1,0,.52l-.33.85a.21.21,0,0,0,0,.19l.79,1.3a1,1,0,0,1,.11.28l.24,1.21a.11.11,0,0,0,0,.07l.36.59a2.11,2.11,0,0,1,.33,1.15v1.16a.19.19,0,0,0,0,.1l.89,1.8a1.41,1.41,0,0,1,.14.88l-.2,1.19a.82.82,0,0,1-.16.37l-.45.62a.23.23,0,0,0,0,.26l.39.52,0,0,1.12.77a.28.28,0,0,0,.12,0h1.64a.27.27,0,0,0,.12,0l1.57-.95,0,0,.72-.67a.9.9,0,0,1,.56-.23l1.91-.06H438a.2.2,0,0,0,.16-.07l1.24-1.24a.81.81,0,0,1,.24-.17l1.44-.69a1,1,0,0,1,.28-.08l1.38-.15a2.55,2.55,0,0,0,.72-.19l1.22-.52a2.57,2.57,0,0,1,.81-.22l2-.22a.84.84,0,0,1,.47.08l1.25.59.07,0,1.63.18a.83.83,0,0,1,.6.33l1.94,2.5a.88.88,0,0,1,.17.41l.08.57a.21.21,0,0,0,.12.16l1.17.64a.2.2,0,0,0,.11,0h.9a1,1,0,0,1,.44.11l1.6.93a.79.79,0,0,1,.24.21l.76.93a.91.91,0,0,1,.18.37l.22,1a.27.27,0,0,0,.06.12l1,1a.15.15,0,0,0,.09.06l1.71.5.14.06,1,.48a.22.22,0,0,0,.21,0l.86-.47a.85.85,0,0,1,.42-.11Z"/>
        <path class="cls-10" d="M467.57,211.85h-.22a.86.86,0,0,1-.75-.44l-.16-.28a.1.1,0,0,0,0,0l-.6-.56a.84.84,0,0,1-.28-.63V209a.19.19,0,0,0,0-.08l-.47-1.06a.85.85,0,0,1-.08-.35v-.2a.86.86,0,0,1,.85-.85.79.79,0,0,1,.5.16l.84.59a.28.28,0,0,0,.18,0l1.21-.39a.75.75,0,0,1,.26,0H469a.85.85,0,0,1,.85.85V209a.85.85,0,0,1-.18.53l-1.12,1.43,0,0-.25.46a.85.85,0,0,1-.74.44Z"/>
        <path class="cls-11" d="M451,259c8.29,0,15-1.38,15-3.08s-6.73-3.09-15-3.09-15,1.38-15,3.09,6.72,3.08,15,3.08Z"/>
        <path class="cls-11" d="M171.06,287.62A8.93,8.93,0,1,0,159.15,296v2.75a.75.75,0,0,0,.75.74h4.46a.74.74,0,0,0,.74-.74V296a8.93,8.93,0,0,0,6-8.41Zm-8.93,6.7a6.7,6.7,0,1,1,6.69-6.7,6.71,6.71,0,0,1-6.69,6.7Z"/>
        <path class="cls-11" d="M166.32,285l-2,2a2.18,2.18,0,0,1,.08.57,2.23,2.23,0,1,1-2.23-2.23,2.61,2.61,0,0,1,.57.08l2-2a.47.47,0,0,1,.64,0l.94.95a.43.43,0,0,1,0,.63Z"/>
        <path class="cls-11" d="M144.28,310.68c0,5.34-3.33,9.67-7.44,9.67s-7.44-4.33-7.44-9.67c0-4,1.84-7.36,4.46-8.86v-3a.75.75,0,0,1,.75-.74h4.46a.74.74,0,0,1,.74.74v3c2.63,1.5,4.47,4.9,4.47,8.86Z"/>
        <path class="cls-11" d="M163.62,301.76v4.46a8.19,8.19,0,0,1-16.37,0V289.11a4.46,4.46,0,0,0-8.92,0v6.7h-3v-6.7a7.44,7.44,0,0,1,14.88,0v17.11a5.21,5.21,0,1,0,10.41,0v-4.46Z"/>
        <path class="cls-11" d="M557.11,159.7h-2.43v-1.78a9,9,0,1,0-3.24,0v1.77H549a.81.81,0,0,0-.81.81v1.62a.81.81,0,0,0,.81.81h2.43v2.43a.81.81,0,0,0,.81.81h1.62a.81.81,0,0,0,.81-.81v-2.43h2.43a.81.81,0,0,0,.81-.81v-1.62a.8.8,0,0,0-.81-.76ZM553.06,154a4.86,4.86,0,1,1,4.86-4.86,4.87,4.87,0,0,1-4.86,4.86Zm22.69-13.77h-5.69a1.21,1.21,0,0,0-.86,2.07l1.5,1.5-1.25,1.24a8.82,8.82,0,0,0-7.34-1.26,10.38,10.38,0,0,1,1.36,3.83,4.91,4.91,0,0,1,.94-.09A4.86,4.86,0,1,1,561.1,156a10.56,10.56,0,0,1-2.88,2.39,2.49,2.49,0,0,1,1.22,1.46,8.91,8.91,0,0,0,12.31-12.44l1.24-1.25,1.5,1.5a1.18,1.18,0,0,0,.85.36,1.22,1.22,0,0,0,1.22-1.22v-5.69a.81.81,0,0,0-.81-.81Z"/>
        <path class="cls-11" d="M394.81,54.49a7.58,7.58,0,0,0-4.13-.83,1.32,1.32,0,0,1,0-2.64,13.5,13.5,0,0,1,3.56.39,11.17,11.17,0,0,0-19.87-3.61,12.47,12.47,0,0,0-21.33.06,17,17,0,0,1,4.44,3.62,1.29,1.29,0,0,1,.31.86,1.31,1.31,0,0,1-2.31.86,13.81,13.81,0,0,0-4.39-3.39,7.74,7.74,0,0,0-1.19-.1A7.89,7.89,0,0,0,342,57.6a7.81,7.81,0,0,0,.65,3.14A8.54,8.54,0,0,0,348.33,76a8.5,8.5,0,0,0,5.1,2.56,9,9,0,0,0,4.81-2.21,1.31,1.31,0,0,1,2.18,1,1.29,1.29,0,0,1-.44,1,11.75,11.75,0,0,1-4.73,2.57,15.73,15.73,0,0,0,23.29,3.19c6.1,3.17,9.51,9,10.83,15.62L392,98.38c0-5.49-.86-15-4.86-18.78a1.3,1.3,0,0,1-.4-.95,1.32,1.32,0,0,1,1.31-1.32,1.28,1.28,0,0,1,.91.37,14.16,14.16,0,0,1,3.15,4.48,16.41,16.41,0,0,0,2.7-27.69ZM365,70.62a1.38,1.38,0,0,1-.59.14,1.32,1.32,0,0,1-.59-2.5c.05,0,1.53-.93,1.84-4.17a11.17,11.17,0,0,1-7.6-4.44,1.31,1.31,0,1,1,2.18-1.47,8.47,8.47,0,0,0,6.8,3.37c4.6,0,6.88-2.16,7-2.26a1.33,1.33,0,0,1,1.86,0,1.31,1.31,0,0,1,0,1.85,12.55,12.55,0,0,1-7.56,2.94c-.39,4.9-3,6.36-3.31,6.52Zm14.93,7.5a7.88,7.88,0,0,1-12.62,0,1.28,1.28,0,0,1-.27-.79A1.32,1.32,0,0,1,368.32,76a1.3,1.3,0,0,1,1.05.53,5.52,5.52,0,0,0,4.21,2.1,5.46,5.46,0,0,0,4.21-2.1,1.3,1.3,0,0,1,1-.53,1.32,1.32,0,0,1,1.32,1.31,1.28,1.28,0,0,1-.27.79Zm9.48-15.26a16.9,16.9,0,0,1-3.11-.17,5.39,5.39,0,0,0-.84,2.8,5.32,5.32,0,0,0,1.05,3.16,1.3,1.3,0,0,1,.27.79,1.33,1.33,0,0,1-1.32,1.32c-1.64,0-2.63-3.55-2.63-5.27a8,8,0,0,1,1-3.86A8.22,8.22,0,0,1,380.16,55a1.3,1.3,0,0,1,1.29-1.34,1.27,1.27,0,0,1,1.34,1.28,5.61,5.61,0,0,0,2.12,4.25,6.41,6.41,0,0,0,4.46,1,1.23,1.23,0,0,1,1.31,1.32,1.26,1.26,0,0,1-1.31,1.31Z"/>
        <path class="cls-11" d="M320.13,142.6a5.63,5.63,0,1,1,2.81,4.87,5.64,5.64,0,0,1-2.81-4.87Zm-3.93,15.62-.34.14-.94.41a7.56,7.56,0,0,0-4.07,4.48l-.3.91a3.75,3.75,0,1,1-7.12-2.38l.31-.91a15,15,0,0,1,8.13-9l.94-.41a19.15,19.15,0,0,1,7.75-1.64,12.94,12.94,0,0,1,11.95,8l1.8,4.32,2.51,1.26a3.75,3.75,0,1,1-3.35,6.71l-3.14-1.56a5.62,5.62,0,0,1-2.68-2.88L326.53,163l-2.26,7.68,5.8,6.33a5.63,5.63,0,0,1,1.31,2.44l2.7,10.8A3.75,3.75,0,1,1,326.8,192l-2.58-10.33-8.29-9a7.46,7.46,0,0,1-1.72-7l2-7.44Zm-6.78,23.3,2.93-7.32a12.93,12.93,0,0,0,.82,1l4.78,5.2-1.7,4.25a5.82,5.82,0,0,1-1.25,1.89l-7.23,7.23a3.75,3.75,0,0,1-5.31-5.31l7-6.95Z"/>
        <path class="cls-9" d="M158.54,194.33a13.47,13.47,0,0,1,6.14-10.57L222.6,150.5a13.62,13.62,0,0,1,12.28,0l57.92,33.26a13.47,13.47,0,0,1,6.14,10.57v66.52a13.48,13.48,0,0,1-6.14,10.57l-57.92,33.26a13.62,13.62,0,0,1-12.28,0l-57.92-33.26a13.48,13.48,0,0,1-6.14-10.57V194.33Z"/>
        <path class="cls-11" d="M238.57,229.39,230.78,245a2.51,2.51,0,0,1-4.52-.1l-8.91-19.75-4.7,11.21H197.32l27.57,28.48a5,5,0,0,0,7.2,0l27.58-28.48H242.14l-3.57-6.92Zm22.32-28.28c-8.49-7.35-21.49-6-29.31,2l-3.08,3.18-3.08-3.18c-7.82-8.06-20.81-9.39-29.31-2a22.38,22.38,0,0,0-3.23,30.19H209.3l5.61-13.48a2.53,2.53,0,0,1,4.62-.06l9.1,20.23,7.68-15.32a2.51,2.51,0,0,1,4.48,0l4.32,8.64h19a22.39,22.39,0,0,0-3.22-30.2Z"/>
        <path class="cls-12" d="M313.17,283.85a9.5,9.5,0,0,1,4.32-7.44L358.22,253a9.57,9.57,0,0,1,8.63,0l40.72,23.38a9.47,9.47,0,0,1,4.32,7.44v46.77a9.47,9.47,0,0,1-4.32,7.43l-40.72,23.38a9.57,9.57,0,0,1-8.63,0l-40.73-23.38a9.5,9.5,0,0,1-4.32-7.43V283.85Z"/>
        <path class="cls-11" d="M392.17,319l-7.38-13.71L376.33,321a9.21,9.21,0,0,0-1.52,5.06,10,10,0,0,0,19.91,0,9.33,9.33,0,0,0-.76-3.69"/>
        <path class="cls-11" d="M373.34,288.81h11.09a4.55,4.55,0,0,1,4.53,4.54v.54a4.55,4.55,0,0,1-4.53,4.54H373.32"/>
        <path class="cls-11" d="M369.08,306.38H334.59a4.27,4.27,0,0,1-4.25-4.25v-17a4.26,4.26,0,0,1,4.25-4.25h34.49a4.27,4.27,0,0,1,4.26,4.25v17a4.27,4.27,0,0,1-4.26,4.25Z"/>
        <path class="cls-12" d="M355,301.25H338.08a2.6,2.6,0,0,1-2.59-2.59V288.29a2.61,2.61,0,0,1,2.59-2.6H355a2.61,2.61,0,0,1,2.59,2.6v10.37a2.6,2.6,0,0,1-2.59,2.59Z"/>
        <path class="cls-12" d="M361.94,291.47l2.52-6.22a.42.42,0,0,1,.77,0l2.85,6.23a.41.41,0,0,1-.37.59h-5.39a.42.42,0,0,1-.38-.58Z"/>
        <path class="cls-12" d="M368.09,295.47l-2.52,6.22a.41.41,0,0,1-.76,0L362,295.49a.41.41,0,0,1,.37-.59h5.39a.41.41,0,0,1,.38.57Z"/>
        <path class="cls-13" d="M338.89,291.21h12m-12,4.53h12"/>
        <path class="cls-14" d="M379.21,292.05h9.56M379.21,295h9.56"/>
      </g>
    </g>
  </g>
</svg>
