<?xml version="1.0" encoding="UTF-8"?>
<svg width="525px" height="167px" viewBox="0 0 525 167" version="1.1" xmlns="http://www.w3.org/2000/svg" xmlns:xlink="http://www.w3.org/1999/xlink">
    <title>asset/bg.vector.device</title>
    <g id="asset/.bg.vector.device" stroke="none" stroke-width="1" fill="none" fill-rule="evenodd">
        <g id="Group" transform="translate(0.000000, 62.000000)">
            <g id="device-shape-copy-2" fill="#B6C6CF" opacity="0.2">
                <path d="M0.014309076,11.5334302 C0.014309076,10.5450581 0.701144726,9.33866279 1.54538021,8.84447674 L15.9689289,0.370639535 C16.8131643,-0.123546512 18.1868357,-0.123546512 19.0310711,0.370639535 L33.4689289,8.84447674 C34.3131643,9.33866279 35,10.5450581 35,11.5334302 L35,28.4665698 C35,29.4549419 34.3131643,30.6613372 33.4689289,31.1555233 L19.0310711,39.6293605 C18.1868357,40.1235465 16.8131643,40.1235465 15.9689289,39.6293605 L1.53107114,31.1555233 C0.68683565,30.6613372 0,29.4549419 0,28.4665698 L0,11.5334302 L0.014309076,11.5334302 Z" id="Path"></path>
            </g>
            <g id="device-shape-copy" transform="translate(22.000000, 23.000000)" stroke="#BAB8CF" stroke-width="2">
                <path d="M0.0298446443,23.643532 C0.0298446443,21.6173692 1.46238757,19.1442587 3.22322159,18.1311773 L33.3066231,0.759811047 C35.0674571,-0.253270349 37.9325429,-0.253270349 39.6933769,0.759811047 L69.8066231,18.1311773 C71.5674571,19.1442587 73,21.6173692 73,23.643532 L73,58.356468 C73,60.3826308 71.5674571,62.8557413 69.8066231,63.8688227 L39.6933769,81.240189 C37.9325429,82.2532703 35.0674571,82.2532703 33.3066231,81.240189 L3.19337694,63.8688227 C1.43254293,62.8557413 0,60.3826308 0,58.356468 L0,23.643532 L0.0298446443,23.643532 Z" id="Path"></path>
            </g>
        </g>
        <g id="device-shape-copy-2" transform="translate(417.000000, 0.000000)" fill="#191B5E" opacity="0.12">
            <path d="M0.0110384301,8.65007267 C0.0110384301,7.9087936 0.540883074,7.00399709 1.19215045,6.63335756 L12.318888,0.277979651 C12.9701554,-0.0926598837 14.0298446,-0.0926598837 14.681112,0.277979651 L25.818888,6.63335756 C26.4701554,7.00399709 27,7.9087936 27,8.65007267 L27,21.3499273 C27,22.0912064 26.4701554,22.9960029 25.818888,23.3666424 L14.681112,29.7220203 C14.0298446,30.0926599 12.9701554,30.0926599 12.318888,29.7220203 L1.18111202,23.3666424 C0.529844644,22.9960029 0,22.0912064 0,21.3499273 L0,8.65007267 L0.0110384301,8.65007267 Z" id="Path"></path>
        </g>
    </g>
</svg>