<svg xmlns="http://www.w3.org/2000/svg" width="170" height="98" viewBox="0 0 170 98">
  <defs>
    <style>
      .cls-1 {
        fill: #fff;
      }
    </style>
  </defs>
  <g id="Layer_4" data-name="Layer 4">
    <g id="da-logo">
      <g>
        <path class="cls-1" d="M35,33V66.77h0a10.66,10.66,0,0,1-8.8,10.49A9.74,9.74,0,0,0,23,79.14h0l-2,1.76.57-2.6a1.09,1.09,0,0,0-.75-1.41,10.66,10.66,0,0,1-7.3-10.11h0A10.67,10.67,0,0,1,24.27,56.11h0a10.67,10.67,0,0,1,9.67,6.14V45a23.67,23.67,0,0,0-9.67-2h-.11a23.79,23.79,0,0,0,.11,47.57h.12A23.69,23.69,0,0,0,35,88.05v1.53H48.08V33Z"/>
        <g>
          <path class="cls-1" d="M80.63,50.9h3.42V65.15H80.63Z"/>
          <path class="cls-1" d="M101,65.15H97.83V63.38a7.05,7.05,0,0,1-5,2.24c-3.67,0-6.94-2.93-6.94-7.68a7.21,7.21,0,0,1,7.15-7.53,6.08,6.08,0,0,1,4.73,2.29h0V50.9H101ZM93.56,53.54a4.33,4.33,0,0,0-4.24,4.55,4.26,4.26,0,0,0,4.24,4.39,4.48,4.48,0,0,0,0-8.94Z"/>
          <path class="cls-1" d="M102.91,46.15h3.42v6a6.34,6.34,0,0,1,4.44-1.77A7.37,7.37,0,0,1,118,58c0,2.85-1.88,7.66-7.1,7.66A5.77,5.77,0,0,1,106,63.43v1.72h-3.13Zm7.5,16.33A4.16,4.16,0,0,0,114.53,58a4.21,4.21,0,0,0-4.17-4.45,4.26,4.26,0,0,0-4.24,4.29A4.34,4.34,0,0,0,110.41,62.48Z"/>
          <path class="cls-1" d="M123.06,59.55A4.08,4.08,0,0,0,127,62.48a3.5,3.5,0,0,0,3.29-1.82h3.6a7.4,7.4,0,0,1-6.89,5,7.5,7.5,0,0,1-7.53-7.56A7.61,7.61,0,0,1,127,50.33a7.5,7.5,0,0,1,7.38,7.5,8,8,0,0,1-.21,1.72Zm7.79-2.74A3.82,3.82,0,0,0,127,53.47a4.12,4.12,0,0,0-4,3.34Z"/>
          <path class="cls-1" d="M147,59.55a4.08,4.08,0,0,0,3.93,2.93,3.53,3.53,0,0,0,3.3-1.82h3.59a7.4,7.4,0,0,1-6.89,5,7.5,7.5,0,0,1-7.53-7.56,7.61,7.61,0,0,1,7.51-7.73,7.5,7.5,0,0,1,7.38,7.5,8,8,0,0,1-.21,1.72Zm7.79-2.74a3.82,3.82,0,0,0-3.86-3.34,4.12,4.12,0,0,0-4,3.34Z"/>
          <path class="cls-1" d="M165.81,54.78a1.33,1.33,0,0,0-1.36-1.24,1.25,1.25,0,0,0-1.31,1.24c0,.82.59,1,2.41,1.59s4,1.39,4,4.26a4.89,4.89,0,0,1-5,5,5.46,5.46,0,0,1-4.27-1.88,5.32,5.32,0,0,1-1.08-3.08h3.5c.15.64.46,1.82,1.88,1.82A1.45,1.45,0,0,0,166.12,61c0-1-.77-1.31-3.22-2.13a4.19,4.19,0,0,1-3.18-4.08,4.73,4.73,0,0,1,9.43,0Z"/>
          <path class="cls-1" d="M142.24,62.09a1.35,1.35,0,0,1-.57.12c-.56,0-1.41,0-1.41-2.06V53.93h2.06v-3h-2.06V46.15h-3.42V50.9h-1.67v3h1.67v5.46h0v.76c0,4,2.49,5.47,4.82,5.47a4.66,4.66,0,0,0,2-.42Z"/>
          <circle class="cls-1" cx="82.34" cy="46.74" r="2.04"/>
          <path class="cls-1" d="M78.16,65.23H75V63.45H74.9a5.33,5.33,0,0,1-4.64,2.25,7.77,7.77,0,0,1,0-15.53A5.57,5.57,0,0,1,74.67,52V45.82h3.49ZM70.62,62.5a4.57,4.57,0,1,0-4.3-4.67A4.47,4.47,0,0,0,70.62,62.5Z"/>
        </g>
        <g>
          <path class="cls-1" d="M93.46,89.66H91.77V87.48h0A4.75,4.75,0,0,1,87.23,90a5.87,5.87,0,0,1-4.82-2.1,7.25,7.25,0,0,1-1.24-4.51V75.64H83v7.72a5.77,5.77,0,0,0,1,3.69,4.22,4.22,0,0,0,3.26,1.33,4,4,0,0,0,3-1.13c.82-.82,1.46-1.74,1.46-4.2V75.64h1.79Z"/>
          <path class="cls-1" d="M98,85.51c.05,2.66,1.87,2.87,2.51,2.87a2.36,2.36,0,0,0,2.62-2.51c0-1.92-1.75-2.36-2.8-2.8-1.44-.48-3.72-1.25-3.72-3.89a3.82,3.82,0,0,1,4-3.9,3.76,3.76,0,0,1,3.83,3.82h-1.8a2.11,2.11,0,0,0-2.1-2.2A2.07,2.07,0,0,0,98.37,79c0,1.48,1.48,2,2.51,2.33,1.64.54,4,1.44,4,4.33A4,4,0,0,1,100.47,90a4.19,4.19,0,0,1-4.31-4.48Z"/>
          <path class="cls-1" d="M117.6,75.64h1.8v2h0c.85-2,2.44-2.28,4-2.38v1.9a4.32,4.32,0,0,0-3,1.38,4.62,4.62,0,0,0-1,2.9v8.2h-1.8Z"/>
          <path class="cls-1" d="M139.29,89.66h-1.8V87.2h-.05A6.48,6.48,0,0,1,132,90a7.36,7.36,0,1,1,0-14.71,6.36,6.36,0,0,1,5.46,2.82h.05V75.64h1.8ZM132,88.38a5.74,5.74,0,1,0-5.75-5.69A5.57,5.57,0,0,0,132,88.38Z"/>
          <path class="cls-1" d="M142.78,70.69h1.79v19h-1.79Z"/>
          <path class="cls-1" d="M167.4,89.66h-1.8V87.2h0A6.48,6.48,0,0,1,160.09,90a7.36,7.36,0,1,1,0-14.71,6.35,6.35,0,0,1,5.46,2.82h0V75.64h1.8Zm-7.31-1.28a5.74,5.74,0,1,0-5.75-5.69A5.57,5.57,0,0,0,160.09,88.38Z"/>
          <path class="cls-1" d="M114.13,88a2.11,2.11,0,0,1-.9.19c-1,0-2.22-.3-2.22-2.87v-8h3.36V75.64H111v-5h-1.8v5h-2.95v1.61h2.95V80.8l0,4.5c0,2.91,1.49,4.65,4,4.65a3.94,3.94,0,0,0,1.63-.34Z"/>
          <g>
            <path class="cls-1" d="M148.09,75.64h1.79v14h-1.79Z"/>
            <circle class="cls-1" cx="148.98" cy="71.77" r="1.08"/>
          </g>
          <path class="cls-1" d="M78,89.78H76.16V87.27h0a6.64,6.64,0,0,1-5.58,2.85,7.52,7.52,0,1,1,0-15A6.49,6.49,0,0,1,76.11,78h0V75.46H78Zm-7.47-1.31a5.87,5.87,0,1,0-5.87-5.81A5.69,5.69,0,0,0,70.53,88.47Z"/>
        </g>
      </g>
    </g>
  </g>
</svg>
