<svg xmlns="http://www.w3.org/2000/svg" width="220" height="98" viewBox="0 0 220 98">
  <defs>
    <style>
      .cls-1 {
        fill: #fff;
      }
    </style>
  </defs>
  <g id="kf-logo">
    <g id="logo.kidney-foundation">
      <path class="cls-1" d="M46.58,89.67H29.2a1.88,1.88,0,0,1-1.15-.54l-10.55-14c-.22-.27-.44-.22-.44.16V89a.73.73,0,0,1-.71.71H.71A.73.73,0,0,1,0,89V46.65a.73.73,0,0,1,.71-.72H16.35a.73.73,0,0,1,.71.72V60.7c0,.38.22.49.44.16L28.43,46.48a1.79,1.79,0,0,1,1.15-.55H45.71c.38,0,.49.28.27.55L31,66.6a1,1,0,0,0,0,1.09L46.85,89.07c.22.33.12.6-.27.6M14.05,60.81c0-.39-.11-.66-.33-.77s-.6-.22-1.2.17a8.81,8.81,0,0,0,0,15.41,1.14,1.14,0,0,0,1.2.17c.22-.11.33-.39.33-.82Zm8.53-.6c-.66-.39-1-.33-1.2-.17a.82.82,0,0,0-.39.77V75a.86.86,0,0,0,.39.82c.16.11.54.21,1.2-.17a8.87,8.87,0,0,0,0-15.41"/>
      <path class="cls-1" d="M139.33,83.54a4.53,4.53,0,0,0-.68-.06l-.92,0c-.44,0-.94,0-1.48.07a5.49,5.49,0,0,0-1.53.33,2.74,2.74,0,0,0-1.18.82,2.35,2.35,0,0,0-.47,1.55,3.85,3.85,0,0,0,.1.91,1.76,1.76,0,0,0,.38.76,2,2,0,0,0,.75.52,3.33,3.33,0,0,0,1.24.19,4.66,4.66,0,0,0,2.16-.53,5.45,5.45,0,0,0,1.63-1.25ZM141,87.6a1.65,1.65,0,0,0,.14.77c.09.16.31.24.65.24a3,3,0,0,0,.78-.15l.11,1.09a3.52,3.52,0,0,1-1.55.35,1.5,1.5,0,0,1-1.26-.48,2.1,2.1,0,0,1-.41-1.14,5.5,5.5,0,0,1-1.84,1.23,6.32,6.32,0,0,1-2.47.47,4.62,4.62,0,0,1-2-.37A3.1,3.1,0,0,1,132,88.7a3.06,3.06,0,0,1-.54-1.16,5,5,0,0,1-.14-1.06,4,4,0,0,1,.57-2.23,3.83,3.83,0,0,1,1.47-1.33,6.38,6.38,0,0,1,2-.64,15.11,15.11,0,0,1,2.23-.16h.93l.76,0V80.88a6.43,6.43,0,0,0-.12-1.31,2.16,2.16,0,0,0-.45-.95,2,2,0,0,0-.86-.58,3.87,3.87,0,0,0-1.38-.2,3.19,3.19,0,0,0-2.19.59,3,3,0,0,0-.85,1.74l-1.6-.28a3.76,3.76,0,0,1,1.48-2.63,5.8,5.8,0,0,1,3.26-.79,4.69,4.69,0,0,1,3.36,1A4.63,4.63,0,0,1,141,80.9ZM129.14,76.72h-1.7v13h1.7Zm.2-5.49a1.37,1.37,0,0,0-1-.34,1.41,1.41,0,0,0-1,.34,1.35,1.35,0,0,0-.35,1,1.34,1.34,0,0,0,.35,1,1.42,1.42,0,0,0,1,.35,1.38,1.38,0,0,0,1-.35,1.3,1.3,0,0,0,.36-1,1.32,1.32,0,0,0-.36-1m-4.86,18.44h-1.7V71.23h1.7Zm-6.8-2.84a5.33,5.33,0,0,1-1.63,1.25,4.66,4.66,0,0,1-2.16.53,3.33,3.33,0,0,1-1.24-.19,2,2,0,0,1-.75-.52,1.88,1.88,0,0,1-.38-.76,3.85,3.85,0,0,1-.1-.91,2.35,2.35,0,0,1,.47-1.55,2.77,2.77,0,0,1,1.19-.82,5.34,5.34,0,0,1,1.52-.33c.54,0,1-.07,1.48-.07l.93,0a4.51,4.51,0,0,1,.67.06Zm1.68-5.93a4.63,4.63,0,0,0-1.06-3.42,4.69,4.69,0,0,0-3.36-1,5.74,5.74,0,0,0-3.25.79,3.76,3.76,0,0,0-1.49,2.63l1.6.28a3,3,0,0,1,.85-1.74,3.19,3.19,0,0,1,2.19-.59,3.87,3.87,0,0,1,1.38.2,2,2,0,0,1,.87.58,2.15,2.15,0,0,1,.44.95,6.38,6.38,0,0,1,.13,1.31v1.29l-.76,0H116a15.11,15.11,0,0,0-2.23.16,6.38,6.38,0,0,0-2,.64,3.83,3.83,0,0,0-1.47,1.33,4,4,0,0,0-.57,2.23,5,5,0,0,0,.14,1.06,3,3,0,0,0,1.7,2.07,4.62,4.62,0,0,0,2,.37,6.29,6.29,0,0,0,2.47-.47,5.4,5.4,0,0,0,1.84-1.23,2,2,0,0,0,.42,1.14,1.47,1.47,0,0,0,1.25.48,3.52,3.52,0,0,0,1.55-.35l-.1-1.09a3,3,0,0,1-.79.15c-.34,0-.55-.08-.65-.24a1.67,1.67,0,0,1-.13-.77ZM109,78.24a4,4,0,0,0-1.25,0,7.12,7.12,0,0,0-1.28.27,5.53,5.53,0,0,0-1.18.54,5.11,5.11,0,0,0-1,.71v9.93h-1.7v-13H104l.16,1.8a4.74,4.74,0,0,1,2-1.66,6.14,6.14,0,0,1,2.41-.39h.4Zm-8.31,9.68a5,5,0,0,1-1.08.46,4,4,0,0,1-1.23.2c-.84,0-1.39-.19-1.63-.59a3.24,3.24,0,0,1-.37-1.71V78.14H100V76.72H96.34v-4l-1.7.25v3.73h-2v1.42h2V86.5a3.54,3.54,0,0,0,.85,2.65,3.59,3.59,0,0,0,2.6.83,5.89,5.89,0,0,0,1.62-.24,4.57,4.57,0,0,0,1.32-.57ZM87.06,76.47a6,6,0,0,1,2,.28,3.46,3.46,0,0,1,1.34.78,3.22,3.22,0,0,1,.81,1.23,7.43,7.43,0,0,1,.41,1.61l-1.67.2a9.89,9.89,0,0,0-.3-1.12,2.31,2.31,0,0,0-.48-.84,2,2,0,0,0-.83-.52A4.1,4.1,0,0,0,87,77.91a4.44,4.44,0,0,0-1.38.18,2.32,2.32,0,0,0-.86.46,1.24,1.24,0,0,0-.43.67,2.72,2.72,0,0,0-.12.8,2.06,2.06,0,0,0,.2,1,1.75,1.75,0,0,0,.62.62A4.16,4.16,0,0,0,86,82c.39.12.82.23,1.31.35s1.17.31,1.72.47a5.5,5.5,0,0,1,1.45.65,2.88,2.88,0,0,1,1,1.06,3.5,3.5,0,0,1,.37,1.73A3.29,3.29,0,0,1,90.62,89,5.48,5.48,0,0,1,87,90a6,6,0,0,1-3.44-.91A4.15,4.15,0,0,1,82,86l1.62-.28A5.69,5.69,0,0,0,84,86.82a2.47,2.47,0,0,0,.6.86,2.7,2.7,0,0,0,1,.59,4.88,4.88,0,0,0,1.55.21,6.25,6.25,0,0,0,1.18-.1,2.75,2.75,0,0,0,.95-.35,1.84,1.84,0,0,0,.63-.67,2,2,0,0,0,.23-1,1.93,1.93,0,0,0-.19-.92,1.53,1.53,0,0,0-.57-.62,3.41,3.41,0,0,0-.92-.42c-.37-.11-.79-.22-1.26-.34l-1.65-.42A5.74,5.74,0,0,1,84,83,3.48,3.48,0,0,1,82.9,82a3.28,3.28,0,0,1-.43-1.78,3.41,3.41,0,0,1,.38-1.63,3.74,3.74,0,0,1,1-1.16,4.5,4.5,0,0,1,1.46-.7,6.72,6.72,0,0,1,1.75-.22m-17.44,9a5.31,5.31,0,0,0,.89,3.33,3.55,3.55,0,0,0,3,1.13,6.14,6.14,0,0,0,2.59-.55,11.81,11.81,0,0,0,2.28-1.33l.1,1.62h1.5v-13h-1.7v9.86a6.1,6.1,0,0,1-.77.6,8.56,8.56,0,0,1-1,.59,7.72,7.72,0,0,1-1.22.47,4.41,4.41,0,0,1-1.28.19,2.29,2.29,0,0,1-2.05-.82,4,4,0,0,1-.56-2.32V76.72h-1.7ZM60.57,72.71l-3.22,9.56h6.41Zm1.19-1.39L68.1,89.67H66.22l-2-5.9H56.84l-2,5.9H53.19l6.24-18.35Z"/>
      <path class="cls-1" d="M216.78,47.69h.51c.44,0,.84,0,.84-.53s-.36-.48-.7-.48h-.65Zm-.5-1.42h1.23c.76,0,1.12.3,1.12.92a.82.82,0,0,1-.84.86l.91,1.41h-.53l-.87-1.37h-.52v1.37h-.5Zm1.06,3.93a2.33,2.33,0,1,0-2.25-2.34,2.25,2.25,0,0,0,2.25,2.34m0-5.06a2.73,2.73,0,1,1-2.75,2.72,2.72,2.72,0,0,1,2.75-2.72"/>
      <path class="cls-1" d="M154.31,45.85h-4.89v7.36h-5.91V45.85h-4.89V64.3h4.89v-7h5.91v7h4.89ZM163.76,56H161a2.41,2.41,0,0,1,.42-1.72,1.36,1.36,0,0,1,1-.47,1.51,1.51,0,0,1,.53.09,1,1,0,0,1,.43.33,1.85,1.85,0,0,1,.28.66,4.41,4.41,0,0,1,.08,1.11m4.91,1.73V57a9.36,9.36,0,0,0-.34-2.63,5.35,5.35,0,0,0-1.07-2,4.81,4.81,0,0,0-1.87-1.27,7.51,7.51,0,0,0-2.73-.45,7.86,7.86,0,0,0-2.59.42,5.81,5.81,0,0,0-3.56,3.48,8.44,8.44,0,0,0-.53,3.11,9.84,9.84,0,0,0,.35,2.61,5.89,5.89,0,0,0,1.13,2.23A5.6,5.6,0,0,0,159.54,64a9.15,9.15,0,0,0,5.54.26,5.65,5.65,0,0,0,1.76-.85,4.41,4.41,0,0,0,1.18-1.3,5.16,5.16,0,0,0,.63-1.67l-3.79-.92a2,2,0,0,1-.59,1.19,1.77,1.77,0,0,1-1.27.44,1.81,1.81,0,0,1-1.55-.62,3.68,3.68,0,0,1-.47-2.13h7.64a4.24,4.24,0,0,0,0-.74m8.5,1.18H177a4.29,4.29,0,0,0-2,.39,1.14,1.14,0,0,0-.54,1,1.28,1.28,0,0,0,.24.77,1,1,0,0,0,.9.33,2.34,2.34,0,0,0,.93-.19,4.07,4.07,0,0,0,.63-.35Zm5.76,5.37a7.08,7.08,0,0,1-.73.18l-.82.13a7.24,7.24,0,0,1-.75,0,4.34,4.34,0,0,1-2.06-.44,2.24,2.24,0,0,1-1.12-1.45,4.25,4.25,0,0,1-3.77,1.89,4.84,4.84,0,0,1-2-.37,3.45,3.45,0,0,1-1.22-.91,2.75,2.75,0,0,1-.6-1.16,4.87,4.87,0,0,1-.16-1.13,4.32,4.32,0,0,1,.4-1.92,3.32,3.32,0,0,1,1.17-1.33,6.59,6.59,0,0,1,1.91-.83,16.09,16.09,0,0,1,2.62-.43l1.37-.08V56.1c0-.36,0-.68,0-1a2,2,0,0,0-.17-.71.94.94,0,0,0-.43-.45,1.89,1.89,0,0,0-.83-.15,1.33,1.33,0,0,0-1.08.4,3,3,0,0,0-.55,1.28l-3.93-.69a5.88,5.88,0,0,1,.55-1.72,3.78,3.78,0,0,1,1.1-1.32,4.73,4.73,0,0,1,1.76-.84,9.28,9.28,0,0,1,2.53-.3,6.78,6.78,0,0,1,4.27,1.14,4.35,4.35,0,0,1,1.44,3.65v5.23a1.66,1.66,0,0,0,.14.78c.09.16.31.24.65.24a3,3,0,0,0,.79-.15l.1,2.52a3.33,3.33,0,0,1-.53.2m6.41-18.34h-4.76V64.3h4.76Zm11.27,14.57a5.83,5.83,0,0,1-1,.4,4,4,0,0,1-1.17.19,1.28,1.28,0,0,1-1.07-.39,1.91,1.91,0,0,1-.31-1.19V54.08h3.47V50.92h-3.47V46.64l-4.76.61v3.67h-2v3.16h2V60a4.59,4.59,0,0,0,1.17,3.52,4.92,4.92,0,0,0,3.42,1.07,8.91,8.91,0,0,0,2.62-.37,7.6,7.6,0,0,0,1.68-.7Zm14.09-5.35a4.82,4.82,0,0,0-1-3.4,4.19,4.19,0,0,0-3.18-1.09,5,5,0,0,0-2.35.5,6.06,6.06,0,0,0-1.47,1.06V45.91H202V64.3h4.77V55.08a2.58,2.58,0,0,1,.78-.52,2.32,2.32,0,0,1,1.08-.25,1.34,1.34,0,0,1,1,.37,1.84,1.84,0,0,1,.36,1.29V64.3h4.76Z"/>
      <path class="cls-1" d="M58.44,52.78l5.88-6.92H70L63.56,53.4l6,10.9H63.92l-3.87-7.21L58.42,58.9v5.4H53.57V45.86h4.85ZM75.61,64.3H70.84V51.72h4.77Zm-.38-18.56a2.83,2.83,0,0,0-2-.67,2.78,2.78,0,0,0-2,.67,2.65,2.65,0,0,0-.7,2,2.75,2.75,0,0,0,.7,2,2.71,2.71,0,0,0,2,.7,2.76,2.76,0,0,0,2-.7,2.71,2.71,0,0,0,.71-2,2.62,2.62,0,0,0-.71-2M85.77,54.8a2.19,2.19,0,0,0-1.41-.54,1.84,1.84,0,0,0-1,.27,2.07,2.07,0,0,0-.7.74,3.54,3.54,0,0,0-.38,1.11,7.21,7.21,0,0,0-.12,1.35,5.05,5.05,0,0,0,.48,2.36,1.68,1.68,0,0,0,1.63.9,2.28,2.28,0,0,0,.75-.13,1.94,1.94,0,0,0,.76-.45Zm.82,9.5L86.31,63l-.1,0a4.1,4.1,0,0,1-1.51,1.18,5.14,5.14,0,0,1-2.16.42,6.14,6.14,0,0,1-2.19-.38A4.24,4.24,0,0,1,78.65,63,5.65,5.65,0,0,1,77.55,61a10.54,10.54,0,0,1-.39-3.06,9.9,9.9,0,0,1,.51-3.4A6.73,6.73,0,0,1,79,52.25,4.53,4.53,0,0,1,80.8,51a5.8,5.8,0,0,1,2-.37,4.62,4.62,0,0,1,1.77.28,3.5,3.5,0,0,1,1.18.79V45.86h4.77V64.3Zm18.81-9.17a4.77,4.77,0,0,0-1-3.4,4.35,4.35,0,0,0-3.27-1.08,5.39,5.39,0,0,0-2.37.47,5.2,5.2,0,0,0-1.61,1.11l-.23-1.3H92.66V64.3h4.77V55.08a2.65,2.65,0,0,1,.77-.52,2.38,2.38,0,0,1,1.09-.24,1.34,1.34,0,0,1,1,.36,1.84,1.84,0,0,1,.36,1.29V64.3h4.76Zm9.23-.27a1.85,1.85,0,0,0-.28-.66,1,1,0,0,0-.43-.33,1.5,1.5,0,0,0-.52-.09,1.4,1.4,0,0,0-1,.47A2.48,2.48,0,0,0,112,56h2.73a4.41,4.41,0,0,0-.08-1.11m5,3.58h-7.65a3.64,3.64,0,0,0,.47,2.13,1.81,1.81,0,0,0,1.55.62,1.75,1.75,0,0,0,1.28-.44,2.17,2.17,0,0,0,.59-1.19l3.78.92a5.39,5.39,0,0,1-.62,1.67,4.46,4.46,0,0,1-1.19,1.3,5.44,5.44,0,0,1-1.76.85,9.15,9.15,0,0,1-5.54-.26,5.6,5.6,0,0,1-2.08-1.55,6,6,0,0,1-1.13-2.22,10,10,0,0,1-.35-2.62,8.35,8.35,0,0,1,.53-3.1,6,6,0,0,1,1.44-2.2A5.92,5.92,0,0,1,111,51.07a7.76,7.76,0,0,1,2.58-.42,7.48,7.48,0,0,1,2.73.44,4.74,4.74,0,0,1,1.87,1.27,5.18,5.18,0,0,1,1.07,2,9.23,9.23,0,0,1,.35,2.62v.71a5.38,5.38,0,0,1,0,.74m5.1,5.65q-.18.47-.33.81a2,2,0,0,1-.36.57,1.68,1.68,0,0,1-.48.36,1.87,1.87,0,0,1-.72.12,4.12,4.12,0,0,1-.85-.1,9.41,9.41,0,0,1-1.11-.3l-.3,3.28a2.59,2.59,0,0,0,.59.23,8.14,8.14,0,0,0,.81.18c.29.05.58.1.88.13a8.4,8.4,0,0,0,.85,0,6.49,6.49,0,0,0,2-.27,3.74,3.74,0,0,0,1.43-.84,5.62,5.62,0,0,0,1.09-1.46,16.89,16.89,0,0,0,.9-2.12l5.07-13.8h-4.92L127,59.05h-.1l-2.27-8.12h-5.12Z"/>
    </g>
  </g>
</svg>
