<svg id="hf-logo" xmlns="http://www.w3.org/2000/svg" width="209" height="98" viewBox="0 0 209 98">
  <defs>
    <style>
      .cls-1 {
        fill: #fff;
      }
    </style>
  </defs>
  <g id="logo.heart-foundation">
    <path class="cls-1" d="M96.79,62.81A3.52,3.52,0,0,0,100,61h3.8a7.34,7.34,0,0,1-6.9,5,7.57,7.57,0,0,1-7.56-7.63,7.67,7.67,0,0,1,7.56-7.77,7.54,7.54,0,0,1,7.42,7.53,9.29,9.29,0,0,1-.21,1.74H93a4,4,0,0,0,3.83,3m4.11-5.71a4,4,0,0,0-4-3.35,4.09,4.09,0,0,0-4,3.35Z"/>
    <path class="cls-1" d="M117.94,63.75a5.66,5.66,0,0,1-1.15,1A6.59,6.59,0,0,1,113,66c-4,0-7-3.27-7-7.73s3.1-7.59,7.14-7.59a6.35,6.35,0,0,1,4.8,2.3V51.18h3.17V65.53H117.9V63.75Zm-4.25-.91a4.5,4.5,0,0,0,0-9,4.34,4.34,0,0,0-4.25,4.56,4.28,4.28,0,0,0,4.25,4.42"/>
    <path class="cls-1" d="M130.27,51.18v3.17h-.56a3.69,3.69,0,0,0-2.09.8,3.43,3.43,0,0,0-1,2.92v7.46h-3.45V51.18h3.17V53a4.83,4.83,0,0,1,3.94-1.77"/>
    <polygon class="cls-1" points="133.92 54.35 132.04 54.35 132.04 51.18 133.92 51.18 133.92 46.4 137.37 46.4 137.37 51.18 139.22 51.18 139.22 54.35 137.37 54.35 137.37 65.49 133.92 65.49 133.92 54.35"/>
    <polygon class="cls-1" points="166.81 78.8 164.92 78.8 164.92 75.63 166.81 75.63 166.81 70.86 170.25 70.86 170.25 75.63 172.1 75.63 172.1 78.8 170.25 78.8 170.25 89.98 166.81 89.98 166.81 78.8"/>
    <polygon class="cls-1" points="73.74 70.86 83.45 70.86 83.45 74.17 77.29 74.17 77.29 78.83 83.18 78.83 83.18 82.14 77.29 82.14 77.29 89.98 73.74 89.98 73.74 70.86"/>
    <path class="cls-1" d="M92.44,75.14a7.65,7.65,0,0,1-.07,15.29,7.65,7.65,0,0,1,.07-15.29m0,12.16a4.25,4.25,0,0,0,4.14-4.46,4.17,4.17,0,1,0-8.32-.07,4.3,4.3,0,0,0,4.18,4.53"/>
    <path class="cls-1" d="M111.39,88.55a4.11,4.11,0,0,1-3.69,1.92,6,6,0,0,1-4.11-1.57c-1.33-1.19-1.81-2.47-1.81-4.84v-8.4h3.44V83c0,2.89,1,4.32,3,4.32s2.9-1.54,2.9-4.32V75.66h3.44V90h-3.17V88.55Z"/>
    <path class="cls-1" d="M116.51,75.63h3.2v1.25a5.25,5.25,0,0,1,3.9-1.74A5.84,5.84,0,0,1,128,77.26c.9,1.19,1.22,2.48,1.22,4.95V90h-3.45V82.91c0-1.85-.24-3-.87-3.66a2.83,2.83,0,0,0-2-.94,2.87,2.87,0,0,0-2.41,1.32c-.41.73-.55,1.54-.55,3.52V90h-3.45V75.63Z"/>
    <path class="cls-1" d="M143,88.24A6.79,6.79,0,0,1,138,90.47c-3.83,0-7-3.52-7-7.63a7.49,7.49,0,0,1,7.21-7.67A6.83,6.83,0,0,1,142.63,77v-6h3.45V90H143V88.24Zm-4.25-.94a4.49,4.49,0,1,0-4.25-4.5,4.43,4.43,0,0,0,4.25,4.5"/>
    <path class="cls-1" d="M160.05,88.2a6.5,6.5,0,0,1-1.15,1,6.58,6.58,0,0,1-3.83,1.29c-4,0-7-3.28-7-7.74s3.1-7.59,7.14-7.59a6.35,6.35,0,0,1,4.8,2.3V75.63h3.17V90H160V88.2Zm-4.25-.9A4.25,4.25,0,0,0,160,82.8a4.21,4.21,0,0,0-4.18-4.49,4.34,4.34,0,0,0-4.25,4.56,4.29,4.29,0,0,0,4.25,4.43"/>
    <path class="cls-1" d="M173.81,70.86h3.44V74h-3.44Zm0,4.77h3.44V90h-3.44Z"/>
    <path class="cls-1" d="M186.76,75.14a7.65,7.65,0,0,1-.07,15.29,7.65,7.65,0,0,1,.07-15.29m0,12.16a4.25,4.25,0,0,0,4.14-4.46,4.17,4.17,0,1,0-8.32-.07,4.3,4.3,0,0,0,4.18,4.53"/>
    <path class="cls-1" d="M196.2,75.63h3.21v1.25a5.22,5.22,0,0,1,3.9-1.74,5.83,5.83,0,0,1,4.42,2.12c.91,1.19,1.22,2.48,1.22,4.95V90H205.5V82.91c0-1.85-.24-3-.87-3.66a2.81,2.81,0,0,0-2-.94,2.84,2.84,0,0,0-2.4,1.32c-.42.73-.56,1.54-.56,3.52V90H196.2Z"/>
    <polygon class="cls-1" points="73.74 46.4 77.29 46.4 77.29 54.21 84.12 54.21 84.12 46.4 87.67 46.4 87.67 65.49 84.12 65.49 84.12 57.48 77.29 57.48 77.29 65.49 73.74 65.49 73.74 46.4"/>
    <path class="cls-1" d="M57,37.42a14,14,0,0,0-7.11-1.88,18,18,0,0,0-7.8,1.91,15.22,15.22,0,0,0-5,3.9,9.39,9.39,0,0,0-2.06,5h8.92l0,.59c-.14,3.45-.53,7.42-2.16,7.42H24.45c-1.67,0-2-4-2.16-7.45l0-.6h8.91a9,9,0,0,0-1.81-4.59A15.19,15.19,0,0,0,23.16,37a18.47,18.47,0,0,0-7.07-1.49,14.35,14.35,0,0,0-7.1,2,17,17,0,0,0-5.05,4.6,19.64,19.64,0,0,0-2.72,5.15A20.8,20.8,0,0,0,0,54.14,26.24,26.24,0,0,0,2.75,65.56a48.43,48.43,0,0,0,4.74,7.77,73.84,73.84,0,0,0,5.4,6.41C15,82,18.53,85.41,21.39,88c1.74,1.56,5.15,4.53,7.28,6.3s3.9,3.35,4.45,3.83c1.33-1.18,8.61-7.31,12.16-10.52A104.1,104.1,0,0,0,58.2,74c4.22-5.54,6.27-10.07,7.25-14a21.36,21.36,0,0,0-1.33-14.7,17.39,17.39,0,0,0-7.1-7.9M37.86,59.19c0,.28-3.55,26.85-4.25,30.47a.49.49,0,1,1-1,0c-.14-1.11-2.41-21.14-2.86-25.21a6.21,6.21,0,0,1,6.3-5.72,7.12,7.12,0,0,1,1.57.18l.21.07Z"/>
    <path class="cls-1" d="M27.59,29.41a7.4,7.4,0,0,0,.48,6.2,31.33,31.33,0,0,0,3.07,4.25,13.91,13.91,0,0,1,2,3.48,14.16,14.16,0,0,1,3.31-6.1,26.69,26.69,0,0,1,3.9-3.48,12.74,12.74,0,0,0,5-8.53c.56-3.73-1-6.27-3.06-8.43a12.4,12.4,0,0,0-8.78-3.45h-.07a14.31,14.31,0,0,0-7.35,2.37,14,14,0,0,0-1.88,1.64c2.06,0,5.44.38,7,2.54,1.29,1.84.28,4.49-.91,5.75a19.4,19.4,0,0,0-2.78,3.76"/>
  </g>
</svg>
