<svg xmlns="http://www.w3.org/2000/svg" width="178" height="98" viewBox="0 0 178 98">
  <defs>
    <style>
      .cls-1 {
        fill: #fff;
      }
    </style>
  </defs>
  <g id="sf-logo">
    <g id="logo.stroke-foundation">
      <g>
        <path class="cls-1" d="M20.78,42.4A6.15,6.15,0,0,0,18,40.16a9.91,9.91,0,0,0-3.71-.71,9.22,9.22,0,0,0-2.24.27,5.74,5.74,0,0,0-1.94.84,4.47,4.47,0,0,0-1.4,1.5,4.32,4.32,0,0,0-.52,2.18,3.41,3.41,0,0,0,1.31,2.9,13.28,13.28,0,0,0,3.26,1.73c1.3.49,2.72,1,4.27,1.42a17.45,17.45,0,0,1,4.26,1.9,10.61,10.61,0,0,1,3.26,3.21,9.49,9.49,0,0,1,1.31,5.31A11.66,11.66,0,0,1,24.73,66a10.84,10.84,0,0,1-3,3.71,13,13,0,0,1-4.34,2.21,18.22,18.22,0,0,1-5.21.73,19.61,19.61,0,0,1-6.69-1.15A12.87,12.87,0,0,1,0,67.55l5-4.84a8.45,8.45,0,0,0,3.18,2.87,9,9,0,0,0,4.18,1,8.76,8.76,0,0,0,2.32-.31,7.16,7.16,0,0,0,2.1-1,4.87,4.87,0,0,0,1.53-1.6,4.27,4.27,0,0,0,.58-2.24,3.89,3.89,0,0,0-1.32-3.16,11.42,11.42,0,0,0-3.26-1.86c-1.3-.51-2.72-1-4.26-1.45a18.17,18.17,0,0,1-4.26-1.87A10.23,10.23,0,0,1,2.53,50a9.34,9.34,0,0,1-1.32-5.28,10,10,0,0,1,1.18-5,10.9,10.9,0,0,1,3.11-3.5,13.59,13.59,0,0,1,4.39-2.08,18.69,18.69,0,0,1,5-.68,18.28,18.28,0,0,1,5.71.89,13.24,13.24,0,0,1,5,2.95Z"/>
        <path class="cls-1" d="M25.26,51.77V46.4h5.2V39.09h6.32V46.4h6.94v5.37H36.78v11a5.55,5.55,0,0,0,.71,3,3.11,3.11,0,0,0,2.81,1.1,10.58,10.58,0,0,0,1.85-.18,3.93,3.93,0,0,0,1.57-.61v5.32a8.16,8.16,0,0,1-2.44.65,19.41,19.41,0,0,1-2.55.19,12.89,12.89,0,0,1-4.14-.56,5.3,5.3,0,0,1-2.52-1.68,6.32,6.32,0,0,1-1.26-2.81,19.6,19.6,0,0,1-.35-3.9V51.77Z"/>
        <path class="cls-1" d="M47.14,46.4h6.32v4h.1a8,8,0,0,1,3-3.42A8.27,8.27,0,0,1,61,45.77a6.12,6.12,0,0,1,1.14.1c.36.07.74.16,1.13.27v6.1c-.53-.14-1-.25-1.56-.34a8.44,8.44,0,0,0-1.5-.13,6.84,6.84,0,0,0-3.55.81,6.57,6.57,0,0,0-2,1.87,6.31,6.31,0,0,0-1,2.1,8.54,8.54,0,0,0-.23,1.58V71.66H47.14Z"/>
        <path class="cls-1" d="M62.82,59a13.36,13.36,0,0,1,1.08-5.45,12.53,12.53,0,0,1,7.29-6.86,15.62,15.62,0,0,1,10.73,0,12.53,12.53,0,0,1,7.29,6.86,14.27,14.27,0,0,1,0,10.89,12.78,12.78,0,0,1-2.92,4.19,12.94,12.94,0,0,1-4.37,2.68,15.62,15.62,0,0,1-10.73,0,12.94,12.94,0,0,1-4.37-2.68,12.78,12.78,0,0,1-2.92-4.19A13.31,13.31,0,0,1,62.82,59Zm6.32,0a8.05,8.05,0,0,0,.5,2.84,7.06,7.06,0,0,0,1.47,2.42,7.47,7.47,0,0,0,10.89,0,7.06,7.06,0,0,0,1.47-2.42,8.32,8.32,0,0,0,0-5.68A7,7,0,0,0,82,53.77a7.24,7.24,0,0,0-2.34-1.69,8,8,0,0,0-6.21,0,7.24,7.24,0,0,0-2.34,1.69,7,7,0,0,0-1.47,2.42A8.05,8.05,0,0,0,69.14,59Z"/>
        <path class="cls-1" d="M92.76,31.88h6.31v25l9.74-10.47h8.1L106.07,57.87,117.6,71.66h-8.37l-10-12.9h-.11v12.9H92.76Z"/>
        <path class="cls-1" d="M121.33,61.24a6.43,6.43,0,0,0,2.21,4.42,6.93,6.93,0,0,0,4.58,1.58,7.51,7.51,0,0,0,4-1,11.12,11.12,0,0,0,2.82-2.44l4.52,3.42a12.82,12.82,0,0,1-4.94,3.89,14.65,14.65,0,0,1-5.74,1.16,15.25,15.25,0,0,1-5.37-1A12.89,12.89,0,0,1,119,68.66a12.63,12.63,0,0,1-2.92-4.19,14.27,14.27,0,0,1,0-10.89A12.59,12.59,0,0,1,119,49.4a12.74,12.74,0,0,1,4.36-2.68,15,15,0,0,1,5.37-.95,12.31,12.31,0,0,1,4.81.92,10.28,10.28,0,0,1,3.74,2.66,12.27,12.27,0,0,1,2.42,4.28,18.21,18.21,0,0,1,.87,5.87v1.74Zm12.94-4.74a5.92,5.92,0,0,0-1.73-4.39,6.53,6.53,0,0,0-4.68-1.61,6.15,6.15,0,0,0-4.5,1.63,7.31,7.31,0,0,0-2,4.37Z"/>
      </g>
      <g>
        <polygon class="cls-1" points="177.59 31.21 171.6 12.24 156.37 23.47 177.59 31.21"/>
        <polygon class="cls-1" points="154.37 1.5 154.37 22.97 169.1 12.24 154.37 1.5"/>
        <polygon class="cls-1" points="153.08 22.18 151.33 1.5 136.14 0 153.08 22.18"/>
        <polygon class="cls-1" points="151.87 22.97 135.14 1.5 128.76 19.27 151.87 22.97"/>
        <polygon class="cls-1" points="131.81 1.45 111.92 22.97 126.59 20.11 131.81 1.45"/>
        <polygon class="cls-1" points="130.51 1.45 117.91 4 111.92 20.48 130.51 1.45"/>
        <polygon class="cls-1" points="115.92 5.74 101.93 14.98 109.67 21.76 115.92 5.74"/>
        <polygon class="cls-1" points="101.08 16.13 97.19 27.97 108.92 22.97 101.08 16.13"/>
        <polygon class="cls-1" points="99.38 29.52 110.85 35.38 108.92 25.22 99.38 29.52"/>
        <polygon class="cls-1" points="111.92 25.22 111.92 35.38 126.9 22.05 111.92 25.22"/>
        <polygon class="cls-1" points="113.42 36.96 130.1 39.95 126.9 24.47 113.42 36.96"/>
        <polygon class="cls-1" points="131.4 39.95 142.13 45.7 129.4 21.73 131.4 39.95"/>
        <polygon class="cls-1" points="143.63 45.7 153.48 25.22 131.4 21.73 143.63 45.7"/>
        <polygon class="cls-1" points="176.1 33.71 156.37 25.22 161.74 39.95 176.1 33.71"/>
        <polygon class="cls-1" points="166.99 51.27 177.55 34.43 163.39 41.45 166.99 51.27"/>
        <polygon class="cls-1" points="143.03 48.43 153.94 69.88 160.16 41.85 143.03 48.43"/>
        <polygon class="cls-1" points="158.82 55.56 165.86 51.33 162.1 43.34 158.82 55.56"/>
      </g>
      <g>
        <path class="cls-1" d="M17.7,77.42h7.73v1.93h-5.6v3.14h5.28v1.93H19.83v5H17.7Z"/>
        <path class="cls-1" d="M26.06,83.46a7.1,7.1,0,0,1,.47-2.62,5.91,5.91,0,0,1,1.32-2,5.82,5.82,0,0,1,2-1.28,7,7,0,0,1,2.55-.45,7.13,7.13,0,0,1,2.58.42,5.44,5.44,0,0,1,2,1.26,6,6,0,0,1,1.32,2,6.82,6.82,0,0,1,.47,2.61A6.6,6.6,0,0,1,38.3,86a5.93,5.93,0,0,1-1.32,2,6.09,6.09,0,0,1-2,1.29,7.36,7.36,0,0,1-2.58.49,7,7,0,0,1-2.55-.45,5.8,5.8,0,0,1-2-1.27,6,6,0,0,1-1.32-2A6.78,6.78,0,0,1,26.06,83.46Zm2.24-.14a5.08,5.08,0,0,0,.29,1.78,4.33,4.33,0,0,0,.84,1.41,4,4,0,0,0,1.29.93,4.37,4.37,0,0,0,3.38,0,3.88,3.88,0,0,0,2.14-2.34,5.08,5.08,0,0,0,.3-1.78,4.62,4.62,0,0,0-.3-1.67,3.92,3.92,0,0,0-2.14-2.28,4.49,4.49,0,0,0-3.38,0,3.85,3.85,0,0,0-1.29.92,4.1,4.1,0,0,0-.84,1.36A4.62,4.62,0,0,0,28.3,83.32Z"/>
        <path class="cls-1" d="M49.64,85a5,5,0,0,1-.37,2,4.37,4.37,0,0,1-2.54,2.42,5.4,5.4,0,0,1-1.91.33,5.45,5.45,0,0,1-1.92-.33,4.78,4.78,0,0,1-1.53-.94,4.28,4.28,0,0,1-1-1.48A5,5,0,0,1,40,85V77.42h2.14v7.51a3.35,3.35,0,0,0,.13.92,2.5,2.5,0,0,0,.45.89,2.41,2.41,0,0,0,.83.67,2.73,2.73,0,0,0,1.28.26,2.76,2.76,0,0,0,1.28-.26,2.41,2.41,0,0,0,.83-.67,2.65,2.65,0,0,0,.44-.89,3.37,3.37,0,0,0,.14-.92V77.42h2.13Z"/>
        <path class="cls-1" d="M51.32,77.42h2.83l5.8,8.9h0v-8.9h2.13v12H59.41l-5.92-9.19h0V89.4H51.32Z"/>
        <path class="cls-1" d="M64,77.42h4.73a7.25,7.25,0,0,1,2.28.36,5.36,5.36,0,0,1,3.3,3,6.36,6.36,0,0,1,.51,2.65,5.67,5.67,0,0,1-.58,2.66,5.59,5.59,0,0,1-1.51,1.87,6.55,6.55,0,0,1-2,1.1,7.19,7.19,0,0,1-2.21.36H64Zm3.73,10a7.31,7.31,0,0,0,1.89-.23,4.45,4.45,0,0,0,1.54-.71,3.46,3.46,0,0,0,1-1.25,4.24,4.24,0,0,0,.38-1.87,4.75,4.75,0,0,0-.34-1.86,3.27,3.27,0,0,0-.94-1.26,4,4,0,0,0-1.42-.72A6.85,6.85,0,0,0,68,79.35H66.1v8.12Z"/>
        <path class="cls-1" d="M78.89,77.42h1.85l5.16,12H83.47l-1.12-2.74h-5.2L76.07,89.4H73.68Zm2.71,7.41L79.76,80l-1.88,4.88Z"/>
        <path class="cls-1" d="M87.17,79.35H83.5V77.42H93v1.93H89.31V89.4H87.17Z"/>
        <path class="cls-1" d="M94.18,77.42h2.13v12H94.18Z"/>
        <path class="cls-1" d="M97.48,83.46A6.91,6.91,0,0,1,98,80.84a5.69,5.69,0,0,1,3.31-3.28,7,7,0,0,1,2.54-.45,7.13,7.13,0,0,1,2.58.42,5.36,5.36,0,0,1,2,1.26,5.68,5.68,0,0,1,1.32,2,6.82,6.82,0,0,1,.48,2.61,6.6,6.6,0,0,1-.48,2.56,5.64,5.64,0,0,1-1.32,2,6,6,0,0,1-2,1.29,7.36,7.36,0,0,1-2.58.49,7,7,0,0,1-2.54-.45,5.75,5.75,0,0,1-2-1.27A5.81,5.81,0,0,1,98,86,6.6,6.6,0,0,1,97.48,83.46Zm2.24-.14A5.32,5.32,0,0,0,100,85.1a4.33,4.33,0,0,0,.84,1.41,4,4,0,0,0,1.3.93,4.13,4.13,0,0,0,1.68.34,4.18,4.18,0,0,0,1.69-.34,4,4,0,0,0,1.31-.93,4.33,4.33,0,0,0,.84-1.41,5.32,5.32,0,0,0,.29-1.78,4.84,4.84,0,0,0-.29-1.67,4.1,4.1,0,0,0-.84-1.36,3.83,3.83,0,0,0-1.31-.92,4.18,4.18,0,0,0-1.69-.33,4.13,4.13,0,0,0-1.68.33,3.79,3.79,0,0,0-1.3.92,4.1,4.1,0,0,0-.84,1.36A4.84,4.84,0,0,0,99.72,83.32Z"/>
        <path class="cls-1" d="M111.38,77.42h2.83l5.8,8.9h0v-8.9h2.13v12h-2.71l-5.92-9.19h0V89.4h-2.13Z"/>
      </g>
    </g>
  </g>
</svg>
